Saman-Regular.ufo
<glyph name="exclam" format="2">
  <advance width="500"/>
  <unicode hex="0021"/>
  <outline>
    <contour>
      <point x="172" y="0" type="curve" smooth="yes"/>
      <point x="244" y="0"/>
      <point x="302" y="58"/>
      <point x="302" y="130" type="curve" smooth="yes"/>
      <point x="302" y="202"/>
      <point x="244" y="260"/>
      <point x="172" y="260" type="curve" smooth="yes"/>
      <point x="100" y="260"/>
      <point x="42" y="202"/>
      <point x="42" y="130" type="curve" smooth="yes"/>
      <point x="42" y="58"/>
      <point x="100" y="0"/>
    </contour>
    <contour>
      <point x="42" y="380" type="line"/>
      <point x="302" y="380" type="line"/>
      <point x="302" y="1400" type="line"/>
      <point x="42" y="1370" type="line"/>
    </contour>
  </outline>
</glyph>
<glyph name="quotedbl" format="2">
  <advance width="660"/>
  <unicode hex="0022"/>
  <outline>
    <contour>
      <point x="60" y="1400" type="line"/>
      <point x="60" y="832" type="line"/>
      <point x="280" y="832" type="line"/>
      <point x="280" y="1400" type="line"/>
    </contour>
    <contour>
      <point x="380" y="1400" type="line"/>
      <point x="380" y="832" type="line"/>
      <point x="600" y="832" type="line"/>
      <point x="600" y="1400" type="line"/>
    </contour>
  </outline>
</glyph>
<glyph name="percent" format="2">
  <advance width="1289"/>
  <unicode hex="0025"/>
  <outline>
    <contour>
      <point x="100" y="1148" type="curve" smooth="yes"/>
      <point x="100" y="1008"/>
      <point x="214" y="893"/>
      <point x="356" y="893" type="curve" smooth="yes"/>
      <point x="497" y="893"/>
      <point x="611" y="1009"/>
      <point x="611" y="1148" type="curve" smooth="yes"/>
      <point x="611" y="1289"/>
      <point x="497" y="1404"/>
      <point x="356" y="1404" type="curve" smooth="yes"/>
      <point x="214" y="1404"/>
      <point x="100" y="1289"/>
    </contour>
    <contour>
      <point x="257" y="1148" type="curve" smooth="yes"/>
      <point x="257" y="1203"/>
      <point x="302" y="1248"/>
      <point x="357" y="1248" type="curve" smooth="yes"/>
      <point x="412" y="1248"/>
      <point x="457" y="1203"/>
      <point x="457" y="1148" type="curve" smooth="yes"/>
      <point x="457" y="1093"/>
      <point x="412" y="1048"/>
      <point x="357" y="1048" type="curve" smooth="yes"/>
      <point x="302" y="1048"/>
      <point x="257" y="1093"/>
    </contour>
    <contour>
      <point x="360" y="0" type="line"/>
      <point x="1189" y="1404" type="line"/>
      <point x="929" y="1404" type="line"/>
      <point x="100" y="0" type="line"/>
    </contour>
    <contour>
      <point x="1189" y="256" type="curve" smooth="yes"/>
      <point x="1189" y="396"/>
      <point x="1075" y="511"/>
      <point x="933" y="511" type="curve" smooth="yes"/>
      <point x="792" y="511"/>
      <point x="678" y="395"/>
      <point x="678" y="256" type="curve" smooth="yes"/>
      <point x="678" y="115"/>
      <point x="792" y="0"/>
      <point x="933" y="0" type="curve" smooth="yes"/>
      <point x="1075" y="0"/>
      <point x="1189" y="115"/>
    </contour>
    <contour>
      <point x="1032" y="256" type="curve" smooth="yes"/>
      <point x="1032" y="201"/>
      <point x="987" y="156"/>
      <point x="932" y="156" type="curve" smooth="yes"/>
      <point x="877" y="156"/>
      <point x="832" y="201"/>
      <point x="832" y="256" type="curve" smooth="yes"/>
      <point x="832" y="311"/>
      <point x="877" y="356"/>
      <point x="932" y="356" type="curve" smooth="yes"/>
      <point x="987" y="356"/>
      <point x="1032" y="311"/>
    </contour>
  </outline>
</glyph>
<glyph name="ampersand" format="2">
  <advance width="1558"/>
  <unicode hex="0026"/>
  <outline>
    <contour>
      <point x="342" y="809" type="curve"/>
      <point x="-77" y="673"/>
      <point x="68" y="0"/>
      <point x="616" y="0" type="curve"/>
      <point x="788" y="1"/>
      <point x="900" y="53"/>
      <point x="1029" y="169" type="curve"/>
      <point x="1198" y="0" type="line"/>
      <point x="1458" y="0" type="line"/>
      <point x="1170" y="294" type="line"/>
      <point x="1248" y="398"/>
      <point x="1310" y="526"/>
      <point x="1302" y="709" type="curve"/>
      <point x="1066" y="709" type="line"/>
      <point x="1065" y="616"/>
      <point x="1041" y="536"/>
      <point x="999" y="468" type="curve"/>
      <point x="793" y="679" type="line"/>
      <point x="1206" y="756"/>
      <point x="1167" y="1413"/>
      <point x="705" y="1420" type="curve" smooth="yes"/>
      <point x="263" y="1420"/>
      <point x="141" y="1025"/>
    </contour>
    <contour>
      <point x="512" y="678" type="curve"/>
      <point x="864" y="331" type="line"/>
      <point x="789" y="256"/>
      <point x="701" y="212"/>
      <point x="565" y="239" type="curve" smooth="yes"/>
      <point x="287" y="294"/>
      <point x="247" y="649"/>
    </contour>
    <contour>
      <point x="665" y="882" type="curve" smooth="yes"/>
      <point x="401" y="882"/>
      <point x="433" y="1234"/>
      <point x="665" y="1226" type="curve" smooth="yes"/>
      <point x="895" y="1226"/>
      <point x="895" y="882"/>
    </contour>
  </outline>
</glyph>
<glyph name="parenright" format="2">
  <advance width="666"/>
  <unicode hex="0029"/>
  <outline>
    <contour>
      <point x="60" y="1527" type="line"/>
      <point x="441" y="966"/>
      <point x="441" y="406"/>
      <point x="60" y="-155" type="curve"/>
      <point x="320" y="-155" type="line"/>
      <point x="701" y="406"/>
      <point x="701" y="966"/>
      <point x="320" y="1527" type="curve"/>
    </contour>
  </outline>
</glyph>
<glyph name="comma" format="2">
  <advance width="310"/>
  <unicode hex="002C"/>
  <outline>
    <contour>
      <point x="205" y="0" type="curve" smooth="yes"/>
      <point x="241" y="0"/>
      <point x="270" y="29"/>
      <point x="270" y="65" type="curve" smooth="yes"/>
      <point x="270" y="101"/>
      <point x="241" y="130"/>
      <point x="205" y="130" type="curve" smooth="yes"/>
      <point x="169" y="130"/>
      <point x="140" y="101"/>
      <point x="140" y="65" type="curve" smooth="yes"/>
      <point x="140" y="29"/>
      <point x="169" y="0"/>
    </contour>
    <contour>
      <point x="140" y="65" type="curve"/>
      <point x="145" y="47"/>
      <point x="119" y="-87"/>
      <point x="40" y="-87" type="curve"/>
      <point x="67" y="-200" type="line"/>
      <point x="184" y="-200"/>
      <point x="218" y="-95"/>
      <point x="270" y="65" type="curve"/>
      <point x="227" y="65"/>
      <point x="183" y="65"/>
    </contour>
  </outline>
</glyph>
<glyph name="hyphen" format="2">
  <advance width="600"/>
  <unicode hex="002D"/>
  <outline>
    <contour>
      <point x="480" y="365" type="line"/>
      <point x="80" y="365" type="line"/>
      <point x="80" y="235" type="line"/>
      <point x="480" y="235" type="line"/>
    </contour>
  </outline>
</glyph>
<glyph name="period" format="2">
  <advance width="380"/>
  <unicode hex="002E"/>
  <outline>
    <contour>
      <point x="190" y="0" type="curve" smooth="yes"/>
      <point x="262" y="0"/>
      <point x="320" y="58"/>
      <point x="320" y="130" type="curve" smooth="yes"/>
      <point x="320" y="202"/>
      <point x="262" y="260"/>
      <point x="190" y="260" type="curve" smooth="yes"/>
      <point x="118" y="260"/>
      <point x="60" y="202"/>
      <point x="60" y="130" type="curve" smooth="yes"/>
      <point x="60" y="58"/>
      <point x="118" y="0"/>
    </contour>
  </outline>
</glyph>
<glyph name="zero" format="2">
  <advance width="1018"/>
  <unicode hex="0030"/>
  <outline>
    <contour>
      <point x="509" y="0" type="move"/>
    </contour>
    <contour>
      <point x="509" y="0" type="move"/>
    </contour>
    <contour>
      <point x="509" y="0" type="curve" smooth="yes"/>
      <point x="1109" y="0"/>
      <point x="1107" y="1400"/>
      <point x="509" y="1400" type="curve" smooth="yes"/>
      <point x="-89" y="1400"/>
      <point x="-91" y="0"/>
    </contour>
    <contour>
      <point x="509" y="260" type="curve" smooth="yes"/>
      <point x="263" y="260"/>
      <point x="263" y="1142"/>
      <point x="509" y="1140" type="curve" smooth="yes"/>
      <point x="755" y="1142"/>
      <point x="755" y="260"/>
    </contour>
  </outline>
</glyph>
<glyph name="one" format="2">
  <advance width="354"/>
  <unicode hex="0031"/>
  <outline>
    <contour>
      <point x="182" y="685" type="line"/>
      <point x="182" y="0" type="line"/>
      <point x="312" y="0" type="line"/>
      <point x="312" y="700" type="line"/>
    </contour>
    <contour>
      <point x="42" y="670" type="line"/>
      <point x="42" y="545" type="line"/>
      <point x="182" y="560" type="line"/>
      <point x="312" y="700" type="line"/>
    </contour>
  </outline>
</glyph>
<glyph name="two" format="2">
  <advance width="530"/>
  <unicode hex="0032"/>
  <outline>
    <contour>
      <point x="488" y="493" type="curve"/>
      <point x="359" y="493" type="line"/>
      <point x="359" y="528"/>
      <point x="317" y="580"/>
      <point x="265" y="580" type="curve" smooth="yes"/>
      <point x="212" y="580"/>
      <point x="167" y="528"/>
      <point x="167" y="493" type="curve"/>
      <point x="42" y="493" type="line"/>
      <point x="42" y="610"/>
      <point x="140" y="700"/>
      <point x="265" y="700" type="curve" smooth="yes"/>
      <point x="387" y="700"/>
      <point x="488" y="610"/>
    </contour>
    <contour>
      <point x="42" y="128" type="line"/>
      <point x="42" y="0" type="line"/>
      <point x="488" y="0" type="line"/>
      <point x="488" y="128" type="line"/>
    </contour>
    <contour>
      <point x="359" y="493" type="line"/>
      <point x="359" y="360"/>
      <point x="42" y="360"/>
      <point x="42" y="128" type="curve"/>
      <point x="172" y="128" type="line"/>
      <point x="172" y="289"/>
      <point x="488" y="289"/>
      <point x="488" y="493" type="curve"/>
    </contour>
  </outline>
</glyph>
<glyph name="three" format="2">
  <advance width="530"/>
  <unicode hex="0033"/>
  <outline>
    <contour>
      <point x="42" y="207" type="curve"/>
      <point x="167" y="207" type="line"/>
      <point x="167" y="172"/>
      <point x="212" y="120"/>
      <point x="265" y="120" type="curve" smooth="yes"/>
      <point x="317" y="120"/>
      <point x="359" y="172"/>
      <point x="359" y="207" type="curve"/>
      <point x="488" y="207" type="line"/>
      <point x="488" y="276"/>
      <point x="452" y="315"/>
      <point x="404" y="351" type="curve"/>
      <point x="254" y="351" type="line"/>
      <point x="254" y="316" type="line"/>
      <point x="312" y="286"/>
      <point x="359" y="258"/>
      <point x="359" y="207" type="curve"/>
      <point x="488" y="207" type="line"/>
      <point x="488" y="90"/>
      <point x="387" y="0"/>
      <point x="265" y="0" type="curve" smooth="yes"/>
      <point x="140" y="0"/>
      <point x="42" y="90"/>
    </contour>
    <contour>
      <point x="42" y="493" type="line"/>
      <point x="42" y="610"/>
      <point x="140" y="700"/>
      <point x="265" y="700" type="curve" smooth="yes"/>
      <point x="387" y="700"/>
      <point x="488" y="610"/>
      <point x="488" y="493" type="curve"/>
      <point x="359" y="493" type="line"/>
      <point x="359" y="442"/>
      <point x="312" y="415"/>
      <point x="254" y="385" type="curve"/>
      <point x="254" y="351" type="line"/>
      <point x="404" y="351" type="line"/>
      <point x="452" y="387"/>
      <point x="488" y="424"/>
      <point x="488" y="493" type="curve"/>
      <point x="359" y="493" type="line"/>
      <point x="359" y="528"/>
      <point x="317" y="580"/>
      <point x="265" y="580" type="curve" smooth="yes"/>
      <point x="212" y="580"/>
      <point x="167" y="528"/>
      <point x="167" y="493" type="curve"/>
    </contour>
  </outline>
</glyph>
<glyph name="four" format="2">
  <advance width="530"/>
  <unicode hex="0034"/>
  <outline>
    <contour>
      <point x="280" y="700" type="line"/>
      <point x="280" y="0" type="line"/>
      <point x="410" y="0" type="line"/>
      <point x="410" y="700" type="line"/>
    </contour>
    <contour>
      <point x="42" y="240" type="line"/>
      <point x="172" y="240" type="line"/>
      <point x="410" y="700" type="line"/>
      <point x="280" y="700" type="line"/>
    </contour>
    <contour>
      <point x="488" y="240" type="line"/>
      <point x="42" y="240" type="line"/>
      <point x="42" y="110" type="line"/>
      <point x="488" y="110" type="line"/>
    </contour>
  </outline>
</glyph>
<glyph name="five" format="2">
  <advance width="529"/>
  <unicode hex="0035"/>
  <outline>
    <contour>
      <point x="44" y="207" type="curve"/>
      <point x="169" y="207" type="line"/>
      <point x="169" y="172"/>
      <point x="214" y="120"/>
      <point x="267" y="120" type="curve" smooth="yes"/>
      <point x="319" y="120"/>
      <point x="358" y="172"/>
      <point x="358" y="247" type="curve"/>
      <point x="487" y="247" type="line"/>
      <point x="483" y="71"/>
      <point x="389" y="0"/>
      <point x="267" y="0" type="curve" smooth="yes"/>
      <point x="142" y="0"/>
      <point x="44" y="90"/>
    </contour>
    <contour>
      <point x="75" y="700" type="line"/>
      <point x="80" y="573" type="line"/>
      <point x="459" y="571" type="line"/>
      <point x="459" y="700" type="line"/>
    </contour>
    <contour>
      <point x="200" y="700" type="line"/>
      <point x="75" y="700" type="line"/>
      <point x="42" y="328" type="line"/>
      <point x="169" y="328" type="line"/>
    </contour>
    <contour>
      <point x="358" y="247" type="line"/>
      <point x="358" y="247" type="line"/>
      <point x="487" y="247" type="line"/>
      <point x="487" y="247" type="line"/>
    </contour>
    <contour>
      <point x="42" y="328" type="curve"/>
      <point x="198" y="328" type="line"/>
      <point x="198" y="328"/>
      <point x="214" y="352"/>
      <point x="267" y="352" type="curve" smooth="yes"/>
      <point x="323" y="352"/>
      <point x="358" y="322"/>
      <point x="358" y="247" type="curve"/>
      <point x="487" y="247" type="line"/>
      <point x="487" y="364"/>
      <point x="411" y="472"/>
      <point x="267" y="472" type="curve" smooth="yes"/>
      <point x="76" y="472"/>
      <point x="173" y="371"/>
    </contour>
  </outline>
</glyph>
<glyph name="six" format="2">
  <advance width="1010"/>
  <unicode hex="0036"/>
  <outline>
    <contour>
      <point x="950" y="494" type="line"/>
      <point x="950" y="260"/>
      <point x="812" y="0"/>
      <point x="500" y="0" type="curve" smooth="yes"/>
      <point x="256" y="0"/>
      <point x="68" y="142"/>
      <point x="60" y="494" type="curve"/>
      <point x="318" y="494" type="line"/>
      <point x="318" y="344"/>
      <point x="396" y="240"/>
      <point x="500" y="240" type="curve" smooth="yes"/>
      <point x="654" y="240"/>
      <point x="692" y="424"/>
      <point x="692" y="494" type="curve"/>
    </contour>
    <contour>
      <point x="318" y="494" type="line"/>
      <point x="60" y="494" type="line"/>
    </contour>
    <contour>
      <point x="910" y="1028" type="curve"/>
      <point x="652" y="1028" type="line"/>
      <point x="652" y="1098"/>
      <point x="654" y="1160"/>
      <point x="500" y="1160" type="curve" smooth="yes"/>
      <point x="396" y="1160"/>
      <point x="318" y="1056"/>
      <point x="318" y="906" type="curve"/>
      <point x="60" y="906" type="line"/>
      <point x="68" y="1258"/>
      <point x="256" y="1400"/>
      <point x="500" y="1400" type="curve" smooth="yes"/>
      <point x="812" y="1400"/>
      <point x="910" y="1262"/>
    </contour>
    <contour>
      <point x="60" y="906" type="line"/>
      <point x="60" y="494" type="line"/>
      <point x="318" y="494" type="line"/>
      <point x="318" y="906" type="line"/>
    </contour>
    <contour>
      <point x="510" y="944" type="curve"/>
      <point x="510" y="704" type="line"/>
      <point x="622" y="704"/>
      <point x="692" y="644"/>
      <point x="692" y="494" type="curve"/>
      <point x="950" y="494" type="line"/>
      <point x="950" y="728"/>
      <point x="798" y="944"/>
    </contour>
    <contour>
      <point x="510" y="944" type="line"/>
      <point x="222" y="944"/>
      <point x="70" y="728"/>
      <point x="70" y="494" type="curve"/>
      <point x="318" y="494" type="line"/>
      <point x="318" y="644"/>
      <point x="398" y="704"/>
      <point x="510" y="704" type="curve"/>
    </contour>
  </outline>
</glyph>
<glyph name="seven" format="2">
  <advance width="964"/>
  <unicode hex="0037"/>
  <outline>
    <contour>
      <point x="642" y="1360" type="line"/>
      <point x="344" y="0" type="line"/>
      <point x="604" y="0" type="line"/>
      <point x="904" y="1400" type="line"/>
    </contour>
    <contour>
      <point x="60" y="1400" type="line"/>
      <point x="60" y="1150" type="line"/>
      <point x="678" y="1150" type="line"/>
      <point x="904" y="1400" type="line"/>
    </contour>
  </outline>
</glyph>
<glyph name="eight" format="2">
  <advance width="1032"/>
  <unicode hex="0038"/>
  <outline>
    <contour>
      <point x="517" y="0" type="line"/>
      <point x="1125" y="0"/>
      <point x="1123" y="872"/>
      <point x="517" y="872" type="curve"/>
      <point x="517" y="672" type="line"/>
      <point x="811" y="672"/>
      <point x="811" y="236"/>
      <point x="517" y="236" type="curve"/>
    </contour>
    <contour>
      <point x="517" y="0" type="curve"/>
      <point x="517" y="236" type="line"/>
      <point x="221" y="236"/>
      <point x="221" y="672"/>
      <point x="517" y="672" type="curve"/>
      <point x="517" y="872" type="line"/>
      <point x="-91" y="872"/>
      <point x="-93" y="0"/>
    </contour>
    <contour>
      <point x="517" y="672" type="line"/>
      <point x="1125" y="672"/>
      <point x="1123" y="1420"/>
      <point x="517" y="1420" type="curve"/>
      <point x="517" y="1216" type="line"/>
      <point x="735" y="1216"/>
      <point x="811" y="872"/>
      <point x="517" y="872" type="curve"/>
    </contour>
    <contour>
      <point x="517" y="672" type="curve"/>
      <point x="517" y="872" type="line"/>
      <point x="221" y="872"/>
      <point x="297" y="1216"/>
      <point x="517" y="1216" type="curve"/>
      <point x="517" y="1420" type="line"/>
      <point x="-91" y="1420"/>
      <point x="-93" y="672"/>
    </contour>
  </outline>
</glyph>
<glyph name="nine" format="2">
  <advance width="529"/>
  <unicode hex="0039"/>
  <outline>
    <contour>
      <point x="262" y="228" type="curve"/>
      <point x="262" y="348" type="line"/>
      <point x="206" y="348"/>
      <point x="171" y="378"/>
      <point x="171" y="453" type="curve"/>
      <point x="42" y="453" type="line"/>
      <point x="42" y="336"/>
      <point x="118" y="228"/>
    </contour>
    <contour>
      <point x="42" y="453" type="line"/>
      <point x="42" y="570"/>
      <point x="111" y="700"/>
      <point x="267" y="700" type="curve" smooth="yes"/>
      <point x="389" y="700"/>
      <point x="483" y="629"/>
      <point x="487" y="453" type="curve"/>
      <point x="358" y="453" type="line"/>
      <point x="358" y="528"/>
      <point x="319" y="580"/>
      <point x="267" y="580" type="curve" smooth="yes"/>
      <point x="190" y="580"/>
      <point x="171" y="488"/>
      <point x="171" y="453" type="curve"/>
    </contour>
    <contour>
      <point x="358" y="453" type="line"/>
      <point x="487" y="453" type="line"/>
    </contour>
    <contour>
      <point x="62" y="186" type="curve"/>
      <point x="191" y="186" type="line"/>
      <point x="191" y="151"/>
      <point x="190" y="120"/>
      <point x="267" y="120" type="curve" smooth="yes"/>
      <point x="319" y="120"/>
      <point x="358" y="172"/>
      <point x="358" y="247" type="curve"/>
      <point x="487" y="247" type="line"/>
      <point x="483" y="71"/>
      <point x="389" y="0"/>
      <point x="267" y="0" type="curve" smooth="yes"/>
      <point x="111" y="0"/>
      <point x="62" y="69"/>
    </contour>
    <contour>
      <point x="487" y="247" type="line"/>
      <point x="487" y="453" type="line"/>
      <point x="358" y="453" type="line"/>
      <point x="358" y="247" type="line"/>
    </contour>
    <contour>
      <point x="262" y="228" type="line"/>
      <point x="406" y="228"/>
      <point x="482" y="336"/>
      <point x="482" y="453" type="curve"/>
      <point x="358" y="453" type="line"/>
      <point x="358" y="378"/>
      <point x="318" y="348"/>
      <point x="262" y="348" type="curve"/>
    </contour>
  </outline>
</glyph>
<glyph name="colon" format="2">
  <advance width="500"/>
  <unicode hex="003A"/>
  <outline>
    <contour>
      <point x="174" y="0" type="curve" smooth="yes"/>
      <point x="246" y="0"/>
      <point x="304" y="58"/>
      <point x="304" y="130" type="curve" smooth="yes"/>
      <point x="304" y="202"/>
      <point x="246" y="260"/>
      <point x="174" y="260" type="curve" smooth="yes"/>
      <point x="102" y="260"/>
      <point x="44" y="202"/>
      <point x="44" y="130" type="curve" smooth="yes"/>
      <point x="44" y="58"/>
      <point x="102" y="0"/>
    </contour>
    <contour>
      <point x="170" y="740" type="curve" smooth="yes"/>
      <point x="242" y="740"/>
      <point x="300" y="798"/>
      <point x="300" y="870" type="curve" smooth="yes"/>
      <point x="300" y="942"/>
      <point x="242" y="1000"/>
      <point x="170" y="1000" type="curve" smooth="yes"/>
      <point x="98" y="1000"/>
      <point x="40" y="942"/>
      <point x="40" y="870" type="curve" smooth="yes"/>
      <point x="40" y="798"/>
      <point x="98" y="740"/>
    </contour>
  </outline>
</glyph>
<glyph name="semicolon" format="2">
  <advance width="550"/>
  <unicode hex="003B"/>
  <outline>
    <contour>
      <point x="372" y="0" type="curve" smooth="yes"/>
      <point x="444" y="0"/>
      <point x="502" y="58"/>
      <point x="502" y="130" type="curve" smooth="yes"/>
      <point x="502" y="202"/>
      <point x="444" y="260"/>
      <point x="372" y="260" type="curve" smooth="yes"/>
      <point x="300" y="260"/>
      <point x="242" y="202"/>
      <point x="242" y="130" type="curve" smooth="yes"/>
      <point x="242" y="58"/>
      <point x="300" y="0"/>
    </contour>
    <contour>
      <point x="242" y="130" type="curve"/>
      <point x="252" y="94"/>
      <point x="200" y="-174"/>
      <point x="42" y="-174" type="curve"/>
      <point x="96" y="-400" type="line"/>
      <point x="330" y="-400"/>
      <point x="398" y="-190"/>
      <point x="502" y="130" type="curve"/>
      <point x="416" y="130"/>
      <point x="328" y="130"/>
    </contour>
    <contour>
      <point x="372" y="740" type="curve" smooth="yes"/>
      <point x="444" y="740"/>
      <point x="502" y="798"/>
      <point x="502" y="870" type="curve" smooth="yes"/>
      <point x="502" y="942"/>
      <point x="444" y="1000"/>
      <point x="372" y="1000" type="curve" smooth="yes"/>
      <point x="300" y="1000"/>
      <point x="242" y="942"/>
      <point x="242" y="870" type="curve" smooth="yes"/>
      <point x="242" y="798"/>
      <point x="300" y="740"/>
    </contour>
  </outline>
</glyph>
<glyph name="question" format="2">
  <advance width="1000"/>
  <unicode hex="003F"/>
  <outline>
    <contour>
      <point x="42" y="1278" type="line"/>
      <point x="124" y="1352"/>
      <point x="236" y="1400"/>
      <point x="356" y="1400" type="curve" smooth="yes"/>
      <point x="600" y="1400"/>
      <point x="802" y="1220"/>
      <point x="802" y="986" type="curve" smooth="yes"/>
      <point x="802" y="722"/>
      <point x="646" y="574"/>
      <point x="356" y="574" type="curve"/>
      <point x="356" y="824" type="line"/>
      <point x="460" y="824"/>
      <point x="544" y="910"/>
      <point x="544" y="986" type="curve" smooth="yes"/>
      <point x="544" y="1056"/>
      <point x="488" y="1160"/>
      <point x="356" y="1160" type="curve" smooth="yes"/>
      <point x="294" y="1160"/>
      <point x="246" y="1138"/>
      <point x="214" y="1106" type="curve"/>
    </contour>
    <contour>
      <point x="226" y="130" type="curve" smooth="yes"/>
      <point x="226" y="202"/>
      <point x="284" y="260"/>
      <point x="356" y="260" type="curve" smooth="yes"/>
      <point x="428" y="260"/>
      <point x="486" y="202"/>
      <point x="486" y="130" type="curve" smooth="yes"/>
      <point x="486" y="58"/>
      <point x="428" y="0"/>
      <point x="356" y="0" type="curve" smooth="yes"/>
      <point x="284" y="0"/>
      <point x="226" y="58"/>
    </contour>
    <contour>
      <point x="226" y="380" type="line"/>
      <point x="226" y="824" type="line"/>
      <point x="486" y="824" type="line"/>
      <point x="486" y="380" type="line"/>
    </contour>
  </outline>
</glyph>
<glyph name="A" format="2">
  <advance width="504"/>
  <unicode hex="0041"/>
  <outline>
    <contour>
      <point x="187" y="700" type="line"/>
      <point x="42" y="0" type="line"/>
      <point x="172" y="0" type="line"/>
      <point x="317" y="700" type="line"/>
    </contour>
    <contour>
      <point x="390" y="174" type="line"/>
      <point x="114" y="174" type="line"/>
      <point x="115" y="78" type="line"/>
      <point x="391" y="78" type="line"/>
    </contour>
    <contour>
      <point x="317" y="700" type="line"/>
      <point x="187" y="700" type="line"/>
      <point x="332" y="0" type="line"/>
      <point x="462" y="0" type="line"/>
    </contour>
  </outline>
</glyph>
<glyph name="C" format="2">
  <advance width="613"/>
  <unicode hex="0043"/>
  <outline>
    <contour>
      <point x="318" y="0" type="curve" smooth="yes"/>
      <point x="448" y="0"/>
      <point x="533" y="87"/>
      <point x="571" y="201" type="curve"/>
      <point x="444" y="272" type="line"/>
      <point x="428" y="194"/>
      <point x="386" y="131"/>
      <point x="318" y="131" type="curve" smooth="yes"/>
      <point x="139" y="131"/>
      <point x="139" y="570"/>
      <point x="318" y="569" type="curve" smooth="yes"/>
      <point x="379" y="569"/>
      <point x="419" y="519"/>
      <point x="438" y="452" type="curve"/>
      <point x="562" y="522" type="line"/>
      <point x="521" y="624"/>
      <point x="439" y="700"/>
      <point x="318" y="700" type="curve" smooth="yes"/>
      <point x="-50" y="700"/>
      <point x="-51" y="0"/>
    </contour>
  </outline>
</glyph>
<glyph name="D" format="2">
  <advance width="586"/>
  <unicode hex="0044"/>
  <outline>
    <contour>
      <point x="42" y="700" type="line"/>
      <point x="42" y="0" type="line"/>
      <point x="172" y="0" type="line"/>
      <point x="172" y="700" type="line"/>
    </contour>
    <contour>
      <point x="268" y="131" type="line"/>
      <point x="66" y="131" type="line"/>
      <point x="66" y="0" type="line"/>
      <point x="268" y="0" type="line"/>
    </contour>
    <contour>
      <point x="268" y="700" type="line"/>
      <point x="66" y="700" type="line"/>
      <point x="66" y="569" type="line"/>
      <point x="268" y="569" type="line"/>
    </contour>
    <contour>
      <point x="268" y="0" type="move"/>
    </contour>
    <contour>
      <point x="268" y="131" type="curve"/>
      <point x="268" y="0" type="line"/>
      <point x="637" y="0"/>
      <point x="636" y="700"/>
      <point x="268" y="700" type="curve"/>
      <point x="268" y="569" type="line"/>
      <point x="447" y="570"/>
      <point x="447" y="131"/>
    </contour>
  </outline>
</glyph>
<glyph name="E" format="2">
  <advance width="504"/>
  <unicode hex="0045"/>
  <outline>
    <contour>
      <point x="42" y="700" type="line"/>
      <point x="42" y="0" type="line"/>
      <point x="172" y="0" type="line"/>
      <point x="172" y="700" type="line"/>
    </contour>
    <contour>
      <point x="462" y="130" type="line"/>
      <point x="66" y="130" type="line"/>
      <point x="66" y="0" type="line"/>
      <point x="462" y="0" type="line"/>
    </contour>
    <contour>
      <point x="462" y="700" type="line"/>
      <point x="67" y="700" type="line"/>
      <point x="67" y="570" type="line"/>
      <point x="462" y="570" type="line"/>
    </contour>
    <contour>
      <point x="172" y="350" type="move"/>
    </contour>
    <contour>
      <point x="462" y="415" type="line"/>
      <point x="67" y="415" type="line"/>
      <point x="67" y="285" type="line"/>
      <point x="462" y="285" type="line"/>
    </contour>
  </outline>
</glyph>
<glyph name="F" format="2">
  <advance width="960"/>
  <unicode hex="0046"/>
  <outline>
    <contour>
      <point x="60" y="1400" type="line"/>
      <point x="60" y="0" type="line"/>
      <point x="320" y="0" type="line"/>
      <point x="320" y="1400" type="line"/>
    </contour>
    <contour>
      <point x="900" y="1400" type="line"/>
      <point x="110" y="1400" type="line"/>
      <point x="110" y="1140" type="line"/>
      <point x="900" y="1140" type="line"/>
    </contour>
    <contour>
      <point x="320" y="700" type="move"/>
    </contour>
    <contour>
      <point x="900" y="830" type="line"/>
      <point x="110" y="830" type="line"/>
      <point x="110" y="570" type="line"/>
      <point x="900" y="570" type="line"/>
    </contour>
  </outline>
</glyph>
<glyph name="G" format="2">
  <advance width="1179"/>
  <unicode hex="0047"/>
  <outline>
    <contour>
      <point x="1119" y="402" type="line"/>
      <point x="1119" y="804" type="line"/>
      <point x="859" y="804" type="line"/>
      <point x="865" y="544" type="line"/>
    </contour>
    <contour>
      <point x="541" y="544" type="line"/>
      <point x="1035" y="544" type="line"/>
      <point x="1035" y="804" type="line"/>
      <point x="541" y="804" type="line"/>
    </contour>
    <contour>
      <point x="613" y="0" type="curve" smooth="yes"/>
      <point x="873" y="0"/>
      <point x="1043" y="176"/>
      <point x="1119" y="402" type="curve"/>
      <point x="865" y="544" type="line"/>
      <point x="833" y="388"/>
      <point x="749" y="260"/>
      <point x="613" y="260" type="curve" smooth="yes"/>
      <point x="255" y="260"/>
      <point x="255" y="1142"/>
      <point x="613" y="1140" type="curve" smooth="yes"/>
      <point x="735" y="1140"/>
      <point x="815" y="1038"/>
      <point x="853" y="904" type="curve"/>
      <point x="1101" y="1044" type="line"/>
      <point x="1019" y="1248"/>
      <point x="855" y="1400"/>
      <point x="613" y="1400" type="curve" smooth="yes"/>
      <point x="-123" y="1400"/>
      <point x="-125" y="0"/>
    </contour>
  </outline>
</glyph>
<glyph name="H" format="2">
  <advance width="552"/>
  <unicode hex="0048"/>
  <outline>
    <contour>
      <point x="42" y="700" type="line"/>
      <point x="42" y="0" type="line"/>
      <point x="172" y="0" type="line"/>
      <point x="172" y="700" type="line"/>
    </contour>
    <contour>
      <point x="332" y="700" type="line"/>
      <point x="332" y="0" type="line"/>
      <point x="462" y="0" type="line"/>
      <point x="462" y="700" type="line"/>
    </contour>
    <contour>
      <point x="44" y="500" type="line"/>
      <point x="44" y="370" type="line"/>
      <point x="459" y="370" type="line"/>
      <point x="459" y="500" type="line"/>
    </contour>
  </outline>
</glyph>
<glyph name="I" format="2">
  <advance width="380"/>
  <unicode hex="0049"/>
  <outline>
    <contour>
      <point x="60" y="1400" type="line"/>
      <point x="60" y="0" type="line"/>
      <point x="320" y="0" type="line"/>
      <point x="320" y="1400" type="line"/>
    </contour>
  </outline>
</glyph>
<glyph name="J" format="2">
  <advance width="434"/>
  <unicode hex="004A"/>
  <outline>
    <contour>
      <point x="42" y="0" type="line"/>
      <point x="217" y="0"/>
      <point x="392" y="37"/>
      <point x="392" y="221" type="curve"/>
      <point x="262" y="221" type="line"/>
      <point x="262" y="131"/>
      <point x="152" y="130"/>
      <point x="42" y="130" type="curve"/>
    </contour>
    <contour>
      <point x="262" y="221" type="line"/>
      <point x="392" y="221" type="line"/>
      <point x="392" y="700" type="line"/>
      <point x="262" y="700" type="line"/>
    </contour>
  </outline>
</glyph>
<glyph name="K" format="2">
  <advance width="504"/>
  <unicode hex="004B"/>
  <outline>
    <contour>
      <point x="42" y="700" type="line"/>
      <point x="42" y="0" type="line"/>
      <point x="172" y="0" type="line"/>
      <point x="172" y="700" type="line"/>
    </contour>
    <contour>
      <point x="172" y="220" type="line"/>
      <point x="462" y="700" type="line"/>
      <point x="332" y="700" type="line"/>
      <point x="172" y="430" type="line"/>
    </contour>
    <contour>
      <point x="257" y="465" type="line"/>
      <point x="169" y="325" type="line"/>
      <point x="318" y="0" type="line"/>
      <point x="462" y="0" type="line"/>
    </contour>
  </outline>
</glyph>
<glyph name="L" format="2">
  <advance width="504"/>
  <unicode hex="004C"/>
  <outline>
    <contour>
      <point x="42" y="700" type="line"/>
      <point x="42" y="0" type="line"/>
      <point x="172" y="0" type="line"/>
      <point x="172" y="700" type="line"/>
    </contour>
    <contour>
      <point x="462" y="130" type="line"/>
      <point x="66" y="130" type="line"/>
      <point x="66" y="0" type="line"/>
      <point x="462" y="0" type="line"/>
    </contour>
  </outline>
</glyph>
<glyph name="M" format="2">
  <advance width="664"/>
  <unicode hex="004D"/>
  <outline>
    <contour>
      <point x="42" y="700" type="line"/>
      <point x="42" y="0" type="line"/>
      <point x="172" y="0" type="line"/>
      <point x="172" y="700" type="line"/>
    </contour>
    <contour>
      <point x="492" y="700" type="line"/>
      <point x="492" y="0" type="line"/>
      <point x="622" y="0" type="line"/>
      <point x="622" y="700" type="line"/>
    </contour>
    <contour>
      <point x="172" y="700" type="line"/>
      <point x="172" y="400" type="line"/>
      <point x="332" y="0" type="line"/>
      <point x="332" y="300" type="line"/>
    </contour>
    <contour>
      <point x="492" y="700" type="line"/>
      <point x="332" y="300" type="line"/>
      <point x="332" y="0" type="line"/>
      <point x="492" y="400" type="line"/>
    </contour>
  </outline>
</glyph>
<glyph name="N" format="2">
  <advance width="504"/>
  <unicode hex="004E"/>
  <outline>
    <contour>
      <point x="42" y="700" type="line"/>
      <point x="42" y="0" type="line"/>
      <point x="172" y="0" type="line"/>
      <point x="172" y="700" type="line"/>
    </contour>
    <contour>
      <point x="332" y="700" type="line"/>
      <point x="332" y="0" type="line"/>
      <point x="462" y="0" type="line"/>
      <point x="462" y="700" type="line"/>
    </contour>
    <contour>
      <point x="172" y="700" type="line"/>
      <point x="172" y="400" type="line"/>
      <point x="332" y="0" type="line"/>
      <point x="332" y="300" type="line"/>
    </contour>
  </outline>
</glyph>
<glyph name="O" format="2">
  <advance width="636"/>
  <unicode hex="004F"/>
  <outline>
    <contour>
      <point x="318" y="0" type="move"/>
    </contour>
    <contour>
      <point x="318" y="131" type="curve"/>
      <point x="318" y="0" type="line"/>
      <point x="687" y="0"/>
      <point x="686" y="700"/>
      <point x="318" y="700" type="curve"/>
      <point x="318" y="569" type="line"/>
      <point x="497" y="570"/>
      <point x="497" y="131"/>
    </contour>
    <contour>
      <point x="318" y="0" type="move"/>
    </contour>
    <contour>
      <point x="318" y="131" type="line"/>
      <point x="139" y="131"/>
      <point x="139" y="570"/>
      <point x="318" y="569" type="curve"/>
      <point x="318" y="700" type="line"/>
      <point x="-50" y="700"/>
      <point x="-51" y="0"/>
      <point x="318" y="0" type="curve"/>
    </contour>
  </outline>
</glyph>
<glyph name="P" format="2">
  <advance width="504"/>
  <unicode hex="0050"/>
  <outline>
    <contour>
      <point x="42" y="700" type="line"/>
      <point x="42" y="0" type="line"/>
      <point x="172" y="0" type="line"/>
      <point x="172" y="700" type="line"/>
    </contour>
    <contour>
      <point x="111" y="280" type="line"/>
      <point x="297" y="280" type="line"/>
      <point x="297" y="410" type="line"/>
      <point x="111" y="410" type="line"/>
    </contour>
    <contour>
      <point x="111" y="570" type="line"/>
      <point x="297" y="570" type="line"/>
      <point x="297" y="700" type="line"/>
      <point x="111" y="700" type="line"/>
    </contour>
    <contour>
      <point x="297" y="410" type="curve"/>
      <point x="297" y="280" type="line"/>
      <point x="518" y="281"/>
      <point x="517" y="701"/>
      <point x="297" y="700" type="curve"/>
      <point x="297" y="570" type="line"/>
      <point x="362" y="570"/>
      <point x="362" y="410"/>
    </contour>
  </outline>
</glyph>
<glyph name="Q" format="2">
  <advance width="682"/>
  <unicode hex="0051"/>
  <outline>
    <contour>
      <point x="318" y="0" type="move"/>
    </contour>
    <contour>
      <point x="318" y="131" type="curve"/>
      <point x="318" y="0" type="line"/>
      <point x="687" y="0"/>
      <point x="686" y="700"/>
      <point x="318" y="700" type="curve"/>
      <point x="318" y="569" type="line"/>
      <point x="497" y="570"/>
      <point x="497" y="131"/>
    </contour>
    <contour>
      <point x="318" y="0" type="move"/>
    </contour>
    <contour>
      <point x="318" y="131" type="line"/>
      <point x="139" y="131"/>
      <point x="139" y="570"/>
      <point x="318" y="569" type="curve"/>
      <point x="318" y="700" type="line"/>
      <point x="-50" y="700"/>
      <point x="-51" y="0"/>
      <point x="318" y="0" type="curve"/>
    </contour>
    <contour>
      <point x="420" y="44" type="line"/>
      <point x="528" y="-75" type="line"/>
      <point x="640" y="44" type="line"/>
      <point x="530" y="162" type="line"/>
    </contour>
  </outline>
</glyph>
<glyph name="R" format="2">
  <advance width="976"/>
  <unicode hex="0052"/>
  <outline>
    <contour>
      <point x="60" y="1400" type="line"/>
      <point x="60" y="0" type="line"/>
      <point x="320" y="0" type="line"/>
      <point x="320" y="1400" type="line"/>
    </contour>
    <contour>
      <point x="198" y="560" type="line"/>
      <point x="570" y="560" type="line"/>
      <point x="570" y="820" type="line"/>
      <point x="198" y="820" type="line"/>
    </contour>
    <contour>
      <point x="198" y="1140" type="line"/>
      <point x="570" y="1140" type="line"/>
      <point x="570" y="1400" type="line"/>
      <point x="198" y="1400" type="line"/>
    </contour>
    <contour>
      <point x="570" y="820" type="curve"/>
      <point x="570" y="560" type="line"/>
      <point x="1012" y="562"/>
      <point x="1010" y="1400"/>
      <point x="570" y="1400" type="curve"/>
      <point x="570" y="1140" type="line"/>
      <point x="700" y="1140"/>
      <point x="700" y="820"/>
    </contour>
    <contour>
      <point x="438" y="644" type="line"/>
      <point x="656" y="0" type="line"/>
      <point x="916" y="0" type="line"/>
      <point x="698" y="644" type="line"/>
    </contour>
  </outline>
</glyph>
<glyph name="T" format="2">
  <advance width="960"/>
  <unicode hex="0054"/>
  <outline>
    <contour>
      <point x="350" y="1400" type="line"/>
      <point x="350" y="0" type="line"/>
      <point x="610" y="0" type="line"/>
      <point x="610" y="1400" type="line"/>
    </contour>
    <contour>
      <point x="900" y="1400" type="line"/>
      <point x="60" y="1400" type="line"/>
      <point x="60" y="1140" type="line"/>
      <point x="900" y="1140" type="line"/>
    </contour>
  </outline>
</glyph>
<glyph name="U" format="2">
  <advance width="504"/>
  <unicode hex="0055"/>
  <outline>
    <contour>
      <point x="42" y="700" type="line"/>
      <point x="42" y="165" type="line"/>
      <point x="172" y="165" type="line"/>
      <point x="172" y="700" type="line"/>
    </contour>
    <contour>
      <point x="332" y="700" type="line"/>
      <point x="332" y="165" type="line"/>
      <point x="462" y="165" type="line"/>
      <point x="462" y="700" type="line"/>
    </contour>
    <contour>
      <point x="172" y="165" type="curve"/>
      <point x="42" y="165" type="line"/>
      <point x="43" y="-56"/>
      <point x="463" y="-55"/>
      <point x="462" y="165" type="curve"/>
      <point x="332" y="165" type="line"/>
      <point x="332" y="100"/>
      <point x="172" y="100"/>
    </contour>
  </outline>
</glyph>
<glyph name="W" format="2">
  <advance width="1540"/>
  <unicode hex="0057"/>
  <outline>
    <contour>
      <point x="350" y="0" type="line"/>
      <point x="610" y="0" type="line"/>
      <point x="320" y="1400" type="line"/>
      <point x="60" y="1400" type="line"/>
    </contour>
    <contour>
      <point x="610" y="0" type="line"/>
      <point x="900" y="1400" type="line"/>
      <point x="640" y="1400" type="line"/>
      <point x="350" y="0" type="line"/>
    </contour>
    <contour>
      <point x="930" y="0" type="line"/>
      <point x="1190" y="0" type="line"/>
      <point x="900" y="1400" type="line"/>
      <point x="640" y="1400" type="line"/>
    </contour>
    <contour>
      <point x="1190" y="0" type="line"/>
      <point x="1480" y="1400" type="line"/>
      <point x="1220" y="1400" type="line"/>
      <point x="930" y="0" type="line"/>
    </contour>
  </outline>
</glyph>
<glyph name="X" format="2">
  <advance width="511"/>
  <unicode hex="0058"/>
  <outline>
    <contour>
      <point x="43" y="700" type="line"/>
      <point x="338" y="0" type="line"/>
      <point x="469" y="0" type="line"/>
      <point x="162" y="700" type="line"/>
    </contour>
    <contour>
      <point x="338" y="630" type="line"/>
      <point x="42" y="0" type="line"/>
      <point x="172" y="0" type="line"/>
      <point x="469" y="630" type="line"/>
    </contour>
    <contour>
      <point x="338" y="700" type="line"/>
      <point x="338" y="630" type="line"/>
      <point x="469" y="630" type="line"/>
      <point x="469" y="700" type="line"/>
    </contour>
  </outline>
</glyph>
<glyph name="Y" format="2">
  <advance width="504"/>
  <unicode hex="0059"/>
  <outline>
    <contour>
      <point x="187" y="286" type="line"/>
      <point x="317" y="286" type="line"/>
      <point x="172" y="700" type="line"/>
      <point x="42" y="700" type="line"/>
    </contour>
    <contour>
      <point x="317" y="286" type="line"/>
      <point x="462" y="700" type="line"/>
      <point x="332" y="700" type="line"/>
      <point x="187" y="286" type="line"/>
    </contour>
    <contour>
      <point x="187" y="286" type="line"/>
      <point x="187" y="0" type="line"/>
      <point x="317" y="0" type="line"/>
      <point x="317" y="286" type="line"/>
    </contour>
  </outline>
</glyph>
<glyph name="Z" format="2">
  <advance width="960"/>
  <unicode hex="005A"/>
  <outline>
    <contour>
      <point x="640" y="1140" type="line"/>
      <point x="60" y="260" type="line"/>
      <point x="320" y="260" type="line"/>
      <point x="900" y="1140" type="line"/>
    </contour>
    <contour>
      <point x="900" y="260" type="line"/>
      <point x="60" y="260" type="line"/>
      <point x="60" y="0" type="line"/>
      <point x="900" y="0" type="line"/>
    </contour>
    <contour>
      <point x="900" y="1400" type="line"/>
      <point x="100" y="1400" type="line"/>
      <point x="100" y="1140" type="line"/>
      <point x="900" y="1140" type="line"/>
    </contour>
    <contour>
      <point x="320" y="700" type="move"/>
    </contour>
  </outline>
</glyph>
<glyph name="bracketleft" format="2">
  <advance width="627"/>
  <unicode hex="005B"/>
  <outline>
    <contour>
      <point x="60" y="1527" type="line"/>
      <point x="60" y="-155" type="line"/>
      <point x="320" y="-155" type="line"/>
      <point x="320" y="1527" type="line"/>
    </contour>
    <contour>
      <point x="60" y="1527" type="line"/>
      <point x="60" y="1267" type="line"/>
      <point x="567" y="1267" type="line"/>
      <point x="567" y="1527" type="line"/>
    </contour>
    <contour>
      <point x="60" y="105" type="line"/>
      <point x="60" y="-155" type="line"/>
      <point x="567" y="-155" type="line"/>
      <point x="567" y="105" type="line"/>
    </contour>
  </outline>
</glyph>
<glyph name="asciicircum" format="2">
  <advance width="953"/>
  <unicode hex="005E"/>
  <outline>
    <contour>
      <point x="341" y="1400" type="line"/>
      <point x="100" y="760" type="line"/>
      <point x="380" y="760" type="line"/>
      <point x="480" y="1112" type="line"/>
      <point x="572" y="760" type="line"/>
      <point x="853" y="760" type="line"/>
      <point x="621" y="1400" type="line"/>
    </contour>
  </outline>
</glyph>
<glyph name="underscore" format="2">
  <advance width="1100"/>
  <unicode hex="005F"/>
  <outline>
    <contour>
      <point x="60" y="260" type="line"/>
      <point x="60" y="0" type="line"/>
      <point x="1040" y="0" type="line"/>
      <point x="1040" y="260" type="line"/>
    </contour>
  </outline>
</glyph>
<glyph name="a" format="2">
  <advance width="492"/>
  <unicode hex="0061"/>
  <outline>
    <contour>
      <point x="239" y="252" type="line"/>
      <point x="302" y="252"/>
      <point x="319" y="232"/>
      <point x="319" y="174" type="curve"/>
      <point x="450" y="174" type="line"/>
      <point x="450" y="344"/>
      <point x="335" y="339"/>
      <point x="235" y="339" type="curve"/>
    </contour>
    <contour>
      <point x="450" y="174" type="line"/>
    </contour>
    <contour>
      <point x="235" y="0" type="line"/>
    </contour>
    <contour>
      <point x="450" y="174" type="line"/>
    </contour>
    <contour>
      <point x="219" y="101" type="curve"/>
      <point x="235" y="0" type="line"/>
      <point x="336" y="10"/>
      <point x="450" y="73"/>
      <point x="450" y="174" type="curve"/>
      <point x="319" y="174" type="line"/>
      <point x="319" y="122"/>
      <point x="282" y="101"/>
    </contour>
    <contour>
      <point x="235" y="101" type="line"/>
      <point x="191" y="101"/>
      <point x="153" y="112"/>
      <point x="153" y="174" type="curve"/>
      <point x="42" y="174" type="line"/>
      <point x="42" y="4"/>
      <point x="135" y="0"/>
      <point x="235" y="0" type="curve"/>
    </contour>
    <contour>
      <point x="257" y="252" type="curve"/>
      <point x="257" y="339" type="line"/>
      <point x="157" y="339"/>
      <point x="42" y="344"/>
      <point x="42" y="174" type="curve"/>
      <point x="153" y="174" type="line"/>
      <point x="153" y="203"/>
      <point x="154" y="253"/>
    </contour>
    <contour>
      <point x="96" y="500" type="curve"/>
      <point x="96" y="398" type="line"/>
      <point x="299" y="421"/>
      <point x="349" y="396"/>
      <point x="349" y="331" type="curve"/>
      <point x="450" y="174" type="line"/>
      <point x="450" y="471"/>
      <point x="411" y="550"/>
    </contour>
    <contour>
      <point x="350" y="100" type="line"/>
      <point x="351" y="0" type="line"/>
      <point x="449" y="0" type="line"/>
      <point x="450" y="174" type="line"/>
    </contour>
  </outline>
</glyph>
<glyph name="d" format="2">
  <advance width="958"/>
  <unicode hex="0064"/>
  <outline>
    <contour>
      <point x="898" y="0" type="line"/>
      <point x="898" y="1400" type="line"/>
      <point x="638" y="1400" type="line"/>
      <point x="638" y="56" type="line"/>
      <point x="660" y="0" type="line"/>
    </contour>
    <contour>
      <point x="320" y="420" type="line"/>
      <point x="320" y="508" type="line"/>
      <point x="60" y="508" type="line"/>
      <point x="60" y="420" type="line"/>
    </contour>
    <contour>
      <point x="508" y="256" type="line"/>
      <point x="382" y="256"/>
      <point x="320" y="272"/>
      <point x="320" y="420" type="curve"/>
      <point x="60" y="420" type="line"/>
      <point x="60" y="80"/>
      <point x="288" y="0"/>
      <point x="488" y="0" type="curve"/>
    </contour>
    <contour>
      <point x="508" y="256" type="line"/>
      <point x="488" y="0" type="line"/>
    </contour>
    <contour>
      <point x="638" y="56" type="move"/>
    </contour>
    <contour>
      <point x="320" y="420" type="line"/>
      <point x="320" y="508" type="line"/>
      <point x="60" y="508" type="line"/>
      <point x="60" y="420" type="line"/>
    </contour>
    <contour>
      <point x="508" y="256" type="line"/>
      <point x="382" y="256"/>
      <point x="320" y="272"/>
      <point x="320" y="420" type="curve"/>
      <point x="60" y="420" type="line"/>
      <point x="60" y="80"/>
      <point x="288" y="0"/>
      <point x="488" y="0" type="curve"/>
    </contour>
    <contour>
      <point x="508" y="256" type="line"/>
      <point x="488" y="0" type="line"/>
    </contour>
    <contour>
      <point x="638" y="56" type="move"/>
    </contour>
    <contour>
      <point x="320" y="420" type="line"/>
      <point x="320" y="508" type="line"/>
      <point x="60" y="508" type="line"/>
      <point x="60" y="420" type="line"/>
    </contour>
    <contour>
      <point x="508" y="256" type="line"/>
      <point x="382" y="256"/>
      <point x="320" y="272"/>
      <point x="320" y="420" type="curve"/>
      <point x="60" y="420" type="line"/>
      <point x="60" y="80"/>
      <point x="288" y="0"/>
      <point x="488" y="0" type="curve"/>
    </contour>
    <contour>
      <point x="508" y="256" type="line"/>
      <point x="488" y="0" type="line"/>
    </contour>
    <contour>
      <point x="320" y="420" type="line"/>
      <point x="320" y="508" type="line"/>
      <point x="60" y="508" type="line"/>
      <point x="60" y="420" type="line"/>
    </contour>
    <contour>
      <point x="508" y="256" type="line"/>
      <point x="382" y="256"/>
      <point x="320" y="272"/>
      <point x="320" y="420" type="curve"/>
      <point x="60" y="420" type="line"/>
      <point x="60" y="80"/>
      <point x="288" y="0"/>
      <point x="488" y="0" type="curve"/>
    </contour>
    <contour>
      <point x="508" y="256" type="curve"/>
      <point x="488" y="0" type="line"/>
      <point x="708" y="0"/>
      <point x="788" y="256"/>
      <point x="788" y="420" type="curve"/>
      <point x="638" y="420" type="line"/>
      <point x="638" y="314"/>
      <point x="604" y="256"/>
    </contour>
    <contour>
      <point x="320" y="580" type="line"/>
      <point x="60" y="580" type="line"/>
      <point x="60" y="508" type="line"/>
      <point x="320" y="508" type="line"/>
    </contour>
    <contour>
      <point x="320" y="580" type="line"/>
      <point x="60" y="580" type="line"/>
      <point x="60" y="508" type="line"/>
      <point x="320" y="508" type="line"/>
    </contour>
    <contour>
      <point x="320" y="580" type="line"/>
      <point x="60" y="580" type="line"/>
      <point x="60" y="508" type="line"/>
      <point x="320" y="508" type="line"/>
    </contour>
    <contour>
      <point x="320" y="580" type="line"/>
      <point x="60" y="580" type="line"/>
      <point x="60" y="508" type="line"/>
      <point x="320" y="508" type="line"/>
    </contour>
    <contour>
      <point x="508" y="744" type="curve"/>
      <point x="488" y="1000" type="line"/>
      <point x="288" y="1000"/>
      <point x="60" y="920"/>
      <point x="60" y="580" type="curve"/>
      <point x="320" y="580" type="line"/>
      <point x="320" y="728"/>
      <point x="382" y="744"/>
    </contour>
    <contour>
      <point x="508" y="744" type="line"/>
      <point x="604" y="744"/>
      <point x="638" y="686"/>
      <point x="638" y="580" type="curve"/>
      <point x="788" y="580" type="line"/>
      <point x="788" y="744"/>
      <point x="708" y="1000"/>
      <point x="488" y="1000" type="curve"/>
    </contour>
  </outline>
</glyph>
<glyph name="e" format="2">
  <advance width="503"/>
  <unicode hex="0065"/>
  <outline>
    <contour>
      <point x="42" y="210" type="line"/>
      <point x="171" y="210" type="line"/>
      <point x="171" y="290" type="line"/>
      <point x="42" y="290" type="line"/>
    </contour>
    <contour>
      <point x="171" y="28" type="move"/>
    </contour>
    <contour>
      <point x="171" y="28" type="move"/>
    </contour>
    <contour>
      <point x="171" y="28" type="move"/>
    </contour>
    <contour>
      <point x="236" y="128" type="curve"/>
      <point x="246" y="0" type="line"/>
      <point x="368" y="0"/>
      <point x="408" y="24"/>
      <point x="437" y="85" type="curve"/>
      <point x="354" y="157" type="line"/>
      <point x="328" y="119"/>
      <point x="269" y="128"/>
    </contour>
    <contour>
      <point x="236" y="128" type="line"/>
      <point x="188" y="128"/>
      <point x="171" y="157"/>
      <point x="171" y="210" type="curve"/>
      <point x="42" y="210" type="line"/>
      <point x="42" y="85"/>
      <point x="136" y="0"/>
      <point x="246" y="0" type="curve"/>
    </contour>
    <contour>
      <point x="236" y="372" type="line"/>
      <point x="299" y="372"/>
      <point x="330" y="354"/>
      <point x="330" y="300" type="curve"/>
      <point x="461" y="300" type="line"/>
      <point x="461" y="434"/>
      <point x="346" y="500"/>
      <point x="246" y="500" type="curve"/>
    </contour>
    <contour>
      <point x="236" y="372" type="curve"/>
      <point x="246" y="500" type="line"/>
      <point x="136" y="500"/>
      <point x="42" y="415"/>
      <point x="42" y="290" type="curve"/>
      <point x="171" y="290" type="line"/>
      <point x="171" y="343"/>
      <point x="188" y="372"/>
    </contour>
    <contour>
      <point x="157" y="300" type="line"/>
      <point x="157" y="219" type="line"/>
      <point x="461" y="220" type="line"/>
      <point x="461" y="300" type="line"/>
    </contour>
  </outline>
</glyph>
<glyph name="f" format="2">
  <advance width="392"/>
  <unicode hex="0066"/>
  <outline>
    <contour>
      <point x="109" y="15" type="line"/>
      <point x="239" y="0" type="line"/>
      <point x="239" y="676" type="line"/>
      <point x="109" y="485" type="line"/>
    </contour>
    <contour>
      <point x="303" y="371" type="line"/>
      <point x="303" y="500" type="line"/>
      <point x="42" y="501" type="line"/>
      <point x="42" y="372" type="line"/>
    </contour>
    <contour>
      <point x="239" y="475" type="line"/>
      <point x="239" y="538"/>
      <point x="276" y="569"/>
      <point x="350" y="569" type="curve"/>
      <point x="350" y="700" type="line"/>
      <point x="180" y="700"/>
      <point x="109" y="585"/>
      <point x="109" y="485" type="curve"/>
    </contour>
  </outline>
</glyph>
<glyph name="g" format="2">
  <advance width="960"/>
  <unicode hex="0067"/>
  <outline>
    <contour>
      <point x="60" y="420" type="line" smooth="yes"/>
      <point x="60" y="80"/>
      <point x="290" y="0"/>
      <point x="490" y="0" type="curve" smooth="yes"/>
      <point x="550.011" y="0"/>
      <point x="600" y="16"/>
      <point x="640" y="39" type="curve"/>
      <point x="640" y="-114"/>
      <point x="586" y="-170"/>
      <point x="490" y="-170" type="curve" smooth="yes"/>
      <point x="388" y="-170"/>
      <point x="320" y="-160"/>
      <point x="320" y="-74" type="curve"/>
      <point x="90" y="-74" type="line"/>
      <point x="90" y="-364"/>
      <point x="388" y="-400"/>
      <point x="490" y="-400" type="curve" smooth="yes"/>
      <point x="790" y="-400"/>
      <point x="900" y="-128"/>
      <point x="900" y="0" type="curve" smooth="yes"/>
      <point x="900" y="580" type="line" smooth="yes"/>
      <point x="900" y="859"/>
      <point x="790" y="1000"/>
      <point x="490" y="1000" type="curve"/>
      <point x="190" y="1000"/>
      <point x="60" y="859"/>
      <point x="60" y="580" type="curve" smooth="yes"/>
    </contour>
    <contour>
      <point x="320" y="420" type="curve" smooth="yes"/>
      <point x="320" y="580" type="line" smooth="yes"/>
      <point x="320" y="728"/>
      <point x="388" y="744"/>
      <point x="490" y="744" type="curve" smooth="yes"/>
      <point x="586" y="744"/>
      <point x="640" y="686"/>
      <point x="640" y="580" type="curve" smooth="yes"/>
      <point x="640" y="420" type="line" smooth="yes"/>
      <point x="640" y="314"/>
      <point x="586" y="256"/>
      <point x="490" y="256" type="curve" smooth="yes"/>
      <point x="388" y="256"/>
      <point x="320" y="272"/>
    </contour>
  </outline>
</glyph>
<glyph name="h" format="2">
  <advance width="960"/>
  <unicode hex="0068"/>
  <outline>
    <contour>
      <point x="60" y="1400" type="line"/>
      <point x="60" y="0" type="line"/>
      <point x="320" y="0" type="line"/>
      <point x="320" y="1400" type="line"/>
    </contour>
    <contour>
      <point x="640" y="580" type="line"/>
      <point x="640" y="0" type="line"/>
      <point x="900" y="0" type="line"/>
      <point x="900" y="580" type="line"/>
    </contour>
    <contour>
      <point x="450" y="744" type="line"/>
      <point x="576" y="744"/>
      <point x="640" y="728"/>
      <point x="640" y="580" type="curve"/>
      <point x="900" y="580" type="line"/>
      <point x="900" y="920"/>
      <point x="670" y="1000"/>
      <point x="470" y="1000" type="curve"/>
    </contour>
    <contour>
      <point x="450" y="744" type="curve"/>
      <point x="470" y="1000" type="line"/>
      <point x="250" y="1000"/>
      <point x="170" y="830"/>
      <point x="170" y="580" type="curve"/>
      <point x="320" y="580" type="line"/>
      <point x="320" y="686"/>
      <point x="354" y="744"/>
    </contour>
  </outline>
</glyph>
<glyph name="i" format="2">
  <advance width="299"/>
  <unicode hex="0069"/>
  <outline>
    <contour>
      <point x="42" y="485" type="line"/>
      <point x="42" y="215" type="line"/>
      <point x="172" y="24" type="line"/>
      <point x="172" y="500" type="line"/>
    </contour>
    <contour>
      <point x="257" y="0" type="move"/>
      <point x="257" y="131" type="line"/>
    </contour>
    <contour>
      <point x="172" y="225" type="curve"/>
      <point x="42" y="215" type="line"/>
      <point x="42" y="115"/>
      <point x="87" y="0"/>
      <point x="257" y="0" type="curve"/>
      <point x="257" y="131" type="line"/>
      <point x="183" y="131"/>
      <point x="172" y="162"/>
    </contour>
    <contour>
      <point x="107" y="535" type="curve" smooth="yes"/>
      <point x="142" y="535"/>
      <point x="172" y="564"/>
      <point x="172" y="600" type="curve" smooth="yes"/>
      <point x="172" y="636"/>
      <point x="142" y="665"/>
      <point x="107" y="665" type="curve" smooth="yes"/>
      <point x="71" y="665"/>
      <point x="42" y="636"/>
      <point x="42" y="600" type="curve" smooth="yes"/>
      <point x="42" y="564"/>
      <point x="71" y="535"/>
    </contour>
  </outline>
</glyph>
<glyph name="j" format="2">
  <advance width="550"/>
  <unicode hex="006A"/>
  <outline>
    <contour>
      <point x="490" y="970" type="line"/>
      <point x="230" y="1000" type="line"/>
      <point x="230" y="-352" type="line"/>
      <point x="490" y="30" type="line"/>
    </contour>
    <contour>
      <point x="60" y="-400" type="move"/>
      <point x="60" y="-138" type="line"/>
    </contour>
    <contour>
      <point x="230" y="50" type="line"/>
      <point x="230" y="-76"/>
      <point x="208" y="-138"/>
      <point x="60" y="-138" type="curve"/>
      <point x="60" y="-400" type="line"/>
      <point x="400" y="-400"/>
      <point x="490" y="-170"/>
      <point x="490" y="30" type="curve"/>
    </contour>
    <contour>
      <point x="360" y="1070" type="curve" smooth="yes"/>
      <point x="430" y="1070"/>
      <point x="490" y="1128"/>
      <point x="490" y="1200" type="curve" smooth="yes"/>
      <point x="490" y="1272"/>
      <point x="430" y="1330"/>
      <point x="360" y="1330" type="curve" smooth="yes"/>
      <point x="288" y="1330"/>
      <point x="230" y="1272"/>
      <point x="230" y="1200" type="curve" smooth="yes"/>
      <point x="230" y="1128"/>
      <point x="288" y="1070"/>
    </contour>
  </outline>
</glyph>
<glyph name="k" format="2">
  <advance width="504"/>
  <unicode hex="006B"/>
  <outline>
    <contour>
      <point x="42" y="700" type="line"/>
      <point x="42" y="0" type="line"/>
      <point x="172" y="0" type="line"/>
      <point x="172" y="700" type="line"/>
    </contour>
    <contour>
      <point x="172" y="221" type="line"/>
      <point x="462" y="500" type="line"/>
      <point x="272" y="500" type="line"/>
      <point x="172" y="403" type="line"/>
    </contour>
    <contour>
      <point x="257" y="356" type="line"/>
      <point x="128" y="291" type="line"/>
      <point x="318" y="0" type="line"/>
      <point x="462" y="0" type="line"/>
    </contour>
  </outline>
</glyph>
<glyph name="m" format="2">
  <advance width="1540"/>
  <unicode hex="006D"/>
  <outline>
    <contour>
      <point x="60" y="1000" type="line"/>
      <point x="60" y="0" type="line"/>
      <point x="320" y="0" type="line"/>
      <point x="320" y="944" type="line"/>
      <point x="298" y="1000" type="line"/>
    </contour>
    <contour>
      <point x="640" y="580" type="line"/>
      <point x="640" y="0" type="line"/>
      <point x="900" y="0" type="line"/>
      <point x="900" y="580" type="line"/>
    </contour>
    <contour>
      <point x="450" y="744" type="line"/>
      <point x="576" y="744"/>
      <point x="640" y="728"/>
      <point x="640" y="580" type="curve"/>
      <point x="900" y="580" type="line"/>
      <point x="900" y="1000"/>
      <point x="670" y="1000"/>
      <point x="470" y="1000" type="curve"/>
    </contour>
    <contour>
      <point x="450" y="744" type="curve"/>
      <point x="470" y="1000" type="line"/>
      <point x="250" y="1000"/>
      <point x="170" y="830"/>
      <point x="170" y="580" type="curve"/>
      <point x="320" y="580" type="line"/>
      <point x="320" y="686"/>
      <point x="354" y="744"/>
    </contour>
    <contour>
      <point x="900" y="944" type="move"/>
    </contour>
    <contour>
      <point x="1220" y="580" type="line"/>
      <point x="1220" y="0" type="line"/>
      <point x="1480" y="0" type="line"/>
      <point x="1480" y="580" type="line"/>
    </contour>
    <contour>
      <point x="1030" y="744" type="line"/>
      <point x="1156" y="744"/>
      <point x="1220" y="728"/>
      <point x="1220" y="580" type="curve"/>
      <point x="1480" y="580" type="line"/>
      <point x="1480" y="920"/>
      <point x="1250" y="1000"/>
      <point x="1050" y="1000" type="curve"/>
    </contour>
    <contour>
      <point x="1030" y="744" type="curve"/>
      <point x="1050" y="1000" type="line"/>
      <point x="830" y="1000"/>
      <point x="750" y="830"/>
      <point x="750" y="580" type="curve"/>
      <point x="900" y="580" type="line"/>
      <point x="900" y="686"/>
      <point x="934" y="744"/>
    </contour>
  </outline>
</glyph>
<glyph name="n" format="2">
  <advance width="504"/>
  <unicode hex="006E"/>
  <outline>
    <contour>
      <point x="42" y="500" type="line"/>
      <point x="42" y="0" type="line"/>
      <point x="172" y="0" type="line"/>
      <point x="172" y="472" type="line"/>
      <point x="161" y="500" type="line"/>
    </contour>
    <contour>
      <point x="331" y="290" type="line"/>
      <point x="332" y="0" type="line"/>
      <point x="462" y="0" type="line"/>
      <point x="462" y="290" type="line"/>
    </contour>
    <contour>
      <point x="237" y="372" type="line"/>
      <point x="300" y="372"/>
      <point x="331" y="364"/>
      <point x="331" y="290" type="curve"/>
      <point x="462" y="290" type="line"/>
      <point x="462" y="460"/>
      <point x="347" y="500"/>
      <point x="247" y="500" type="curve"/>
    </contour>
    <contour>
      <point x="237" y="372" type="curve"/>
      <point x="247" y="500" type="line"/>
      <point x="137" y="500"/>
      <point x="97" y="415"/>
      <point x="97" y="290" type="curve"/>
      <point x="172" y="290" type="line"/>
      <point x="172" y="343"/>
      <point x="189" y="372"/>
    </contour>
  </outline>
</glyph>
<glyph name="o" format="2">
  <advance width="514"/>
  <unicode hex="006F"/>
  <outline>
    <contour>
      <point x="341" y="210" type="line"/>
      <point x="472" y="210" type="line"/>
      <point x="472" y="254" type="line"/>
      <point x="341" y="254" type="line"/>
    </contour>
    <contour>
      <point x="247" y="128" type="curve"/>
      <point x="257" y="0" type="line"/>
      <point x="357" y="0"/>
      <point x="472" y="40"/>
      <point x="472" y="210" type="curve"/>
      <point x="341" y="210" type="line"/>
      <point x="341" y="136"/>
      <point x="310" y="128"/>
    </contour>
    <contour>
      <point x="247" y="128" type="line"/>
      <point x="257" y="0" type="line"/>
    </contour>
    <contour>
      <point x="472" y="254" type="line"/>
      <point x="341" y="254" type="line"/>
    </contour>
    <contour>
      <point x="341" y="290" type="line"/>
      <point x="341" y="254" type="line"/>
      <point x="472" y="254" type="line"/>
      <point x="472" y="290" type="line"/>
    </contour>
    <contour>
      <point x="247" y="372" type="line"/>
      <point x="310" y="372"/>
      <point x="341" y="364"/>
      <point x="341" y="290" type="curve"/>
      <point x="472" y="290" type="line"/>
      <point x="472" y="460"/>
      <point x="357" y="500"/>
      <point x="257" y="500" type="curve"/>
    </contour>
    <contour>
      <point x="247" y="372" type="line"/>
      <point x="257" y="500" type="line"/>
    </contour>
    <contour>
      <point x="173" y="210" type="line"/>
      <point x="173" y="254" type="line"/>
      <point x="42" y="254" type="line"/>
      <point x="42" y="210" type="line"/>
    </contour>
    <contour>
      <point x="267" y="128" type="line"/>
      <point x="204" y="128"/>
      <point x="173" y="136"/>
      <point x="173" y="210" type="curve"/>
      <point x="42" y="210" type="line"/>
      <point x="42" y="40"/>
      <point x="157" y="0"/>
      <point x="257" y="0" type="curve"/>
    </contour>
    <contour>
      <point x="267" y="128" type="line"/>
      <point x="257" y="0" type="line"/>
    </contour>
    <contour>
      <point x="173" y="254" type="line"/>
      <point x="42" y="254" type="line"/>
    </contour>
    <contour>
      <point x="173" y="254" type="line"/>
      <point x="42" y="254" type="line"/>
    </contour>
    <contour>
      <point x="173" y="254" type="line"/>
      <point x="42" y="254" type="line"/>
    </contour>
    <contour>
      <point x="267" y="372" type="line"/>
      <point x="257" y="500" type="line"/>
    </contour>
    <contour>
      <point x="173" y="290" type="line"/>
      <point x="42" y="290" type="line"/>
      <point x="42" y="254" type="line"/>
      <point x="173" y="254" type="line"/>
    </contour>
    <contour>
      <point x="267" y="372" type="curve"/>
      <point x="257" y="500" type="line"/>
      <point x="157" y="500"/>
      <point x="42" y="460"/>
      <point x="42" y="290" type="curve"/>
      <point x="173" y="290" type="line"/>
      <point x="173" y="364"/>
      <point x="204" y="372"/>
    </contour>
  </outline>
</glyph>
<glyph name="p" format="2">
  <advance width="504"/>
  <unicode hex="0070"/>
  <outline>
    <contour>
      <point x="42" y="500" type="line"/>
      <point x="42" y="-200" type="line"/>
      <point x="172" y="-200" type="line"/>
      <point x="172" y="472" type="line"/>
      <point x="161" y="500" type="line"/>
    </contour>
    <contour>
      <point x="172" y="472" type="move"/>
      <point x="161" y="500" type="line"/>
    </contour>
    <contour>
      <point x="172" y="472" type="move"/>
    </contour>
    <contour>
      <point x="172" y="472" type="move"/>
      <point x="161" y="500" type="line"/>
    </contour>
    <contour>
      <point x="331" y="290" type="line"/>
      <point x="462" y="290" type="line"/>
    </contour>
    <contour>
      <point x="237" y="372" type="line"/>
      <point x="300" y="372"/>
      <point x="331" y="364"/>
      <point x="331" y="290" type="curve"/>
      <point x="462" y="290" type="line"/>
      <point x="462" y="460"/>
      <point x="347" y="500"/>
      <point x="247" y="500" type="curve"/>
    </contour>
    <contour>
      <point x="237" y="372" type="curve"/>
      <point x="247" y="500" type="line"/>
      <point x="137" y="500"/>
      <point x="97" y="415"/>
      <point x="97" y="290" type="curve"/>
      <point x="172" y="290" type="line"/>
      <point x="172" y="343"/>
      <point x="189" y="372"/>
    </contour>
    <contour>
      <point x="237" y="128" type="line"/>
      <point x="189" y="128"/>
      <point x="172" y="157"/>
      <point x="172" y="210" type="curve"/>
      <point x="97" y="210" type="line"/>
      <point x="97" y="85"/>
      <point x="137" y="0"/>
      <point x="247" y="0" type="curve"/>
    </contour>
    <contour>
      <point x="331" y="210" type="line"/>
      <point x="462" y="210" type="line"/>
    </contour>
    <contour>
      <point x="237" y="128" type="curve"/>
      <point x="247" y="0" type="line"/>
      <point x="347" y="0"/>
      <point x="462" y="40"/>
      <point x="462" y="210" type="curve"/>
      <point x="331" y="210" type="line"/>
      <point x="331" y="136"/>
      <point x="300" y="128"/>
    </contour>
    <contour>
      <point x="237" y="128" type="line"/>
      <point x="189" y="128"/>
      <point x="172" y="157"/>
      <point x="172" y="210" type="curve"/>
      <point x="97" y="210" type="line"/>
      <point x="97" y="85"/>
      <point x="137" y="0"/>
      <point x="247" y="0" type="curve"/>
    </contour>
    <contour>
      <point x="331" y="290" type="line"/>
      <point x="331" y="210" type="line"/>
      <point x="462" y="210" type="line"/>
      <point x="462" y="290" type="line"/>
    </contour>
  </outline>
</glyph>
<glyph name="q" format="2">
  <advance width="960"/>
  <unicode hex="0071"/>
  <outline>
    <contour>
      <point x="900" y="1000" type="line"/>
      <point x="662" y="1000" type="line"/>
      <point x="640" y="944" type="line"/>
      <point x="640" y="-400" type="line"/>
      <point x="900" y="-400" type="line"/>
    </contour>
    <contour>
      <point x="322" y="580" type="line"/>
      <point x="60" y="580" type="line"/>
      <point x="60" y="492" type="line"/>
      <point x="322" y="492" type="line"/>
    </contour>
    <contour>
      <point x="510" y="744" type="curve"/>
      <point x="490" y="1000" type="line"/>
      <point x="290" y="1000"/>
      <point x="60" y="920"/>
      <point x="60" y="580" type="curve"/>
      <point x="322" y="580" type="line"/>
      <point x="322" y="728"/>
      <point x="384" y="744"/>
    </contour>
    <contour>
      <point x="510" y="744" type="line"/>
      <point x="606" y="744"/>
      <point x="640" y="686"/>
      <point x="640" y="580" type="curve"/>
      <point x="790" y="580" type="line"/>
      <point x="790" y="830"/>
      <point x="710" y="1000"/>
      <point x="490" y="1000" type="curve"/>
    </contour>
    <contour>
      <point x="640" y="944" type="move"/>
      <point x="662" y="1000" type="line"/>
    </contour>
    <contour>
      <point x="322" y="580" type="line"/>
      <point x="60" y="580" type="line"/>
      <point x="60" y="492" type="line"/>
      <point x="322" y="492" type="line"/>
    </contour>
    <contour>
      <point x="510" y="744" type="curve"/>
      <point x="490" y="1000" type="line"/>
      <point x="290" y="1000"/>
      <point x="60" y="920"/>
      <point x="60" y="580" type="curve"/>
      <point x="322" y="580" type="line"/>
      <point x="322" y="728"/>
      <point x="384" y="744"/>
    </contour>
    <contour>
      <point x="510" y="744" type="line"/>
      <point x="606" y="744"/>
      <point x="640" y="686"/>
      <point x="640" y="580" type="curve"/>
      <point x="790" y="580" type="line"/>
      <point x="790" y="830"/>
      <point x="710" y="1000"/>
      <point x="490" y="1000" type="curve"/>
    </contour>
    <contour>
      <point x="640" y="944" type="move"/>
    </contour>
    <contour>
      <point x="322" y="580" type="line"/>
      <point x="60" y="580" type="line"/>
      <point x="60" y="492" type="line"/>
      <point x="322" y="492" type="line"/>
    </contour>
    <contour>
      <point x="510" y="744" type="curve"/>
      <point x="490" y="1000" type="line"/>
      <point x="290" y="1000"/>
      <point x="60" y="920"/>
      <point x="60" y="580" type="curve"/>
      <point x="322" y="580" type="line"/>
      <point x="322" y="728"/>
      <point x="384" y="744"/>
    </contour>
    <contour>
      <point x="510" y="744" type="line"/>
      <point x="606" y="744"/>
      <point x="640" y="686"/>
      <point x="640" y="580" type="curve"/>
      <point x="790" y="580" type="line"/>
      <point x="790" y="830"/>
      <point x="710" y="1000"/>
      <point x="490" y="1000" type="curve"/>
    </contour>
    <contour>
      <point x="640" y="944" type="move"/>
      <point x="662" y="1000" type="line"/>
    </contour>
    <contour>
      <point x="322" y="580" type="line"/>
      <point x="60" y="580" type="line"/>
      <point x="60" y="492" type="line"/>
      <point x="322" y="492" type="line"/>
    </contour>
    <contour>
      <point x="510" y="744" type="curve"/>
      <point x="490" y="1000" type="line"/>
      <point x="290" y="1000"/>
      <point x="60" y="920"/>
      <point x="60" y="580" type="curve"/>
      <point x="322" y="580" type="line"/>
      <point x="322" y="728"/>
      <point x="384" y="744"/>
    </contour>
    <contour>
      <point x="510" y="744" type="line"/>
      <point x="606" y="744"/>
      <point x="640" y="686"/>
      <point x="640" y="580" type="curve"/>
      <point x="790" y="580" type="line"/>
      <point x="790" y="830"/>
      <point x="710" y="1000"/>
      <point x="490" y="1000" type="curve"/>
    </contour>
    <contour>
      <point x="322" y="420" type="line"/>
      <point x="322" y="492" type="line"/>
      <point x="60" y="492" type="line"/>
      <point x="60" y="420" type="line"/>
    </contour>
    <contour>
      <point x="510" y="256" type="line"/>
      <point x="384" y="256"/>
      <point x="322" y="272"/>
      <point x="322" y="420" type="curve"/>
      <point x="60" y="420" type="line"/>
      <point x="60" y="80"/>
      <point x="290" y="0"/>
      <point x="490" y="0" type="curve"/>
    </contour>
    <contour>
      <point x="510" y="256" type="curve"/>
      <point x="490" y="0" type="line"/>
      <point x="710" y="0"/>
      <point x="790" y="170"/>
      <point x="790" y="420" type="curve"/>
      <point x="640" y="420" type="line"/>
      <point x="640" y="314"/>
      <point x="606" y="256"/>
    </contour>
    <contour>
      <point x="322" y="420" type="line"/>
      <point x="322" y="492" type="line"/>
      <point x="60" y="492" type="line"/>
      <point x="60" y="420" type="line"/>
    </contour>
    <contour>
      <point x="510" y="256" type="line"/>
      <point x="384" y="256"/>
      <point x="322" y="272"/>
      <point x="322" y="420" type="curve"/>
      <point x="60" y="420" type="line"/>
      <point x="60" y="80"/>
      <point x="290" y="0"/>
      <point x="490" y="0" type="curve"/>
    </contour>
    <contour>
      <point x="510" y="256" type="curve"/>
      <point x="490" y="0" type="line"/>
      <point x="710" y="0"/>
      <point x="790" y="170"/>
      <point x="790" y="420" type="curve"/>
      <point x="640" y="420" type="line"/>
      <point x="640" y="314"/>
      <point x="606" y="256"/>
    </contour>
    <contour>
      <point x="322" y="420" type="line"/>
      <point x="322" y="492" type="line"/>
      <point x="60" y="492" type="line"/>
      <point x="60" y="420" type="line"/>
    </contour>
    <contour>
      <point x="510" y="256" type="line"/>
      <point x="384" y="256"/>
      <point x="322" y="272"/>
      <point x="322" y="420" type="curve"/>
      <point x="60" y="420" type="line"/>
      <point x="60" y="80"/>
      <point x="290" y="0"/>
      <point x="490" y="0" type="curve"/>
    </contour>
    <contour>
      <point x="510" y="256" type="curve"/>
      <point x="490" y="0" type="line"/>
      <point x="710" y="0"/>
      <point x="790" y="170"/>
      <point x="790" y="420" type="curve"/>
      <point x="640" y="420" type="line"/>
      <point x="640" y="314"/>
      <point x="606" y="256"/>
    </contour>
    <contour>
      <point x="322" y="420" type="line"/>
      <point x="322" y="492" type="line"/>
      <point x="60" y="492" type="line"/>
      <point x="60" y="420" type="line"/>
    </contour>
    <contour>
      <point x="510" y="256" type="line"/>
      <point x="384" y="256"/>
      <point x="322" y="272"/>
      <point x="322" y="420" type="curve"/>
      <point x="60" y="420" type="line"/>
      <point x="60" y="80"/>
      <point x="290" y="0"/>
      <point x="490" y="0" type="curve"/>
    </contour>
    <contour>
      <point x="510" y="256" type="curve"/>
      <point x="490" y="0" type="line"/>
      <point x="710" y="0"/>
      <point x="790" y="170"/>
      <point x="790" y="420" type="curve"/>
      <point x="640" y="420" type="line"/>
      <point x="640" y="314"/>
      <point x="606" y="256"/>
    </contour>
  </outline>
</glyph>
<glyph name="r" format="2">
  <advance width="958"/>
  <unicode hex="0072"/>
  <outline>
    <contour>
      <point x="60" y="1000" type="line"/>
      <point x="60" y="0" type="line"/>
      <point x="320" y="0" type="line"/>
      <point x="320" y="944" type="line"/>
      <point x="298" y="1000" type="line"/>
    </contour>
    <contour>
      <point x="638" y="580" type="line"/>
      <point x="898" y="580" type="line"/>
    </contour>
    <contour>
      <point x="450" y="744" type="line"/>
      <point x="576" y="744"/>
      <point x="638" y="728"/>
      <point x="638" y="580" type="curve"/>
      <point x="898" y="580" type="line"/>
      <point x="898" y="920"/>
      <point x="670" y="1000"/>
      <point x="470" y="1000" type="curve"/>
    </contour>
    <contour>
      <point x="450" y="744" type="curve"/>
      <point x="470" y="1000" type="line"/>
      <point x="250" y="1000"/>
      <point x="170" y="830"/>
      <point x="170" y="580" type="curve"/>
      <point x="320" y="580" type="line"/>
      <point x="320" y="686"/>
      <point x="354" y="744"/>
    </contour>
    <contour>
      <point x="638" y="580" type="line"/>
      <point x="898" y="580" type="line"/>
    </contour>
    <contour>
      <point x="450" y="744" type="line"/>
      <point x="576" y="744"/>
      <point x="638" y="728"/>
      <point x="638" y="580" type="curve"/>
      <point x="898" y="580" type="line"/>
      <point x="898" y="920"/>
      <point x="670" y="1000"/>
      <point x="470" y="1000" type="curve"/>
    </contour>
    <contour>
      <point x="450" y="744" type="curve"/>
      <point x="470" y="1000" type="line"/>
      <point x="250" y="1000"/>
      <point x="170" y="830"/>
      <point x="170" y="580" type="curve"/>
      <point x="320" y="580" type="line"/>
      <point x="320" y="686"/>
      <point x="354" y="744"/>
    </contour>
    <contour>
      <point x="638" y="580" type="line"/>
      <point x="898" y="580" type="line"/>
    </contour>
    <contour>
      <point x="450" y="744" type="line"/>
      <point x="576" y="744"/>
      <point x="638" y="728"/>
      <point x="638" y="580" type="curve"/>
      <point x="898" y="580" type="line"/>
      <point x="898" y="920"/>
      <point x="670" y="1000"/>
      <point x="470" y="1000" type="curve"/>
    </contour>
    <contour>
      <point x="450" y="744" type="curve"/>
      <point x="470" y="1000" type="line"/>
      <point x="250" y="1000"/>
      <point x="170" y="830"/>
      <point x="170" y="580" type="curve"/>
      <point x="320" y="580" type="line"/>
      <point x="320" y="686"/>
      <point x="354" y="744"/>
    </contour>
    <contour>
      <point x="638" y="580" type="line"/>
      <point x="898" y="580" type="line"/>
    </contour>
    <contour>
      <point x="450" y="744" type="line"/>
      <point x="576" y="744"/>
      <point x="638" y="728"/>
      <point x="638" y="580" type="curve"/>
      <point x="898" y="580" type="line"/>
      <point x="898" y="920"/>
      <point x="670" y="1000"/>
      <point x="470" y="1000" type="curve"/>
    </contour>
    <contour>
      <point x="450" y="744" type="curve"/>
      <point x="470" y="1000" type="line"/>
      <point x="250" y="1000"/>
      <point x="170" y="830"/>
      <point x="170" y="580" type="curve"/>
      <point x="320" y="580" type="line"/>
      <point x="320" y="686"/>
      <point x="354" y="744"/>
    </contour>
  </outline>
</glyph>
<glyph name="s" format="2">
  <advance width="980"/>
  <unicode hex="0073"/>
  <outline>
    <contour>
      <point x="60" y="322" type="curve"/>
      <point x="340" y="322" type="line"/>
      <point x="340" y="268"/>
      <point x="389" y="210"/>
      <point x="491" y="210" type="curve" smooth="yes"/>
      <point x="591" y="210"/>
      <point x="669" y="242"/>
      <point x="669" y="296" type="curve" smooth="yes"/>
      <point x="669" y="346"/>
      <point x="640" y="404"/>
      <point x="490" y="404" type="curve" smooth="yes"/>
      <point x="229" y="404"/>
      <point x="61" y="540"/>
      <point x="61" y="704" type="curve" smooth="yes"/>
      <point x="61" y="872"/>
      <point x="259" y="1000"/>
      <point x="490" y="1000" type="curve" smooth="yes"/>
      <point x="728" y="1000"/>
      <point x="920" y="848"/>
      <point x="920" y="680" type="curve"/>
      <point x="640" y="680" type="line"/>
      <point x="640" y="730"/>
      <point x="592" y="790"/>
      <point x="490" y="790" type="curve" smooth="yes"/>
      <point x="388" y="790"/>
      <point x="308" y="754"/>
      <point x="308" y="704" type="curve" smooth="yes"/>
      <point x="308" y="650"/>
      <point x="340" y="596"/>
      <point x="490" y="596" type="curve" smooth="yes"/>
      <point x="751" y="596"/>
      <point x="915" y="460"/>
      <point x="915" y="296" type="curve" smooth="yes"/>
      <point x="915" y="130"/>
      <point x="721" y="0"/>
      <point x="490" y="0" type="curve" smooth="yes"/>
      <point x="274" y="0"/>
      <point x="60" y="156"/>
    </contour>
    <component base="yarimS" xScale="1.03382" xOffset="-19"/>
  </outline>
</glyph>
<glyph name="t" format="2">
  <advance width="484"/>
  <unicode hex="0074"/>
  <outline>
    <contour>
      <point x="177" y="685" type="line"/>
      <point x="177" y="215" type="line"/>
      <point x="307" y="24" type="line"/>
      <point x="307" y="700" type="line"/>
    </contour>
    <contour>
      <point x="442" y="500" type="line"/>
      <point x="42" y="500" type="line"/>
      <point x="42" y="370" type="line"/>
      <point x="442" y="370" type="line"/>
    </contour>
    <contour>
      <point x="307" y="225" type="curve"/>
      <point x="177" y="215" type="line"/>
      <point x="177" y="115"/>
      <point x="222" y="0"/>
      <point x="392" y="0" type="curve"/>
      <point x="392" y="131" type="line"/>
      <point x="318" y="131"/>
      <point x="307" y="162"/>
    </contour>
  </outline>
</glyph>
<glyph name="u" format="2">
  <advance width="960"/>
  <unicode hex="0075"/>
  <outline>
    <contour>
      <point x="900" y="0" type="line"/>
      <point x="900" y="1000" type="line"/>
      <point x="640" y="1000" type="line"/>
      <point x="640" y="56" type="line"/>
      <point x="662" y="0" type="line"/>
    </contour>
    <contour>
      <point x="320" y="420" type="line"/>
      <point x="320" y="1000" type="line"/>
      <point x="60" y="1000" type="line"/>
      <point x="60" y="420" type="line"/>
    </contour>
    <contour>
      <point x="510" y="256" type="line"/>
      <point x="384" y="256"/>
      <point x="320" y="272"/>
      <point x="320" y="420" type="curve"/>
      <point x="60" y="420" type="line"/>
      <point x="60" y="80"/>
      <point x="290" y="0"/>
      <point x="490" y="0" type="curve"/>
    </contour>
    <contour>
      <point x="510" y="256" type="curve"/>
      <point x="490" y="0" type="line"/>
      <point x="710" y="0"/>
      <point x="790" y="170"/>
      <point x="790" y="420" type="curve"/>
      <point x="640" y="420" type="line"/>
      <point x="640" y="314"/>
      <point x="606" y="256"/>
    </contour>
  </outline>
</glyph>
<glyph name="v" format="2">
  <advance width="510"/>
  <unicode hex="0076"/>
  <outline>
    <contour>
      <point x="42" y="500" type="line"/>
      <point x="182" y="0" type="line"/>
      <point x="312" y="0" type="line"/>
      <point x="161" y="500" type="line"/>
    </contour>
    <contour>
      <point x="337" y="450" type="line"/>
      <point x="182" y="0" type="line"/>
      <point x="312" y="0" type="line"/>
      <point x="468" y="450" type="line"/>
    </contour>
    <contour>
      <point x="337" y="500" type="line"/>
      <point x="337" y="450" type="line"/>
      <point x="468" y="450" type="line"/>
      <point x="468" y="500" type="line"/>
    </contour>
  </outline>
</glyph>
<glyph name="w" format="2">
  <advance width="1596"/>
  <unicode hex="0077"/>
  <outline>
    <contour>
      <point x="60" y="1000" type="line"/>
      <point x="352" y="0" type="line"/>
      <point x="612" y="0" type="line"/>
      <point x="320" y="1000" type="line"/>
    </contour>
    <contour>
      <point x="663" y="900" type="line"/>
      <point x="351" y="0" type="line"/>
      <point x="612" y="0" type="line"/>
      <point x="923" y="900" type="line"/>
    </contour>
    <contour>
      <point x="351" y="0" type="move"/>
      <point x="612" y="0" type="line"/>
    </contour>
    <contour>
      <point x="663" y="1000" type="line"/>
      <point x="663" y="900" type="line"/>
      <point x="923" y="900" type="line"/>
      <point x="923" y="1000" type="line"/>
    </contour>
    <contour>
      <point x="351" y="0" type="move"/>
      <point x="612" y="0" type="line"/>
    </contour>
    <contour>
      <point x="663" y="1000" type="line"/>
      <point x="966" y="0" type="line"/>
      <point x="1226" y="0" type="line"/>
      <point x="923" y="1000" type="line"/>
    </contour>
    <contour>
      <point x="1276" y="1000" type="line"/>
      <point x="1276" y="900" type="line"/>
      <point x="1536" y="900" type="line"/>
      <point x="1536" y="1000" type="line"/>
    </contour>
    <contour>
      <point x="966" y="0" type="line"/>
    </contour>
    <contour>
      <point x="966" y="0" type="move"/>
      <point x="1226" y="0" type="line"/>
    </contour>
    <contour>
      <point x="1226" y="0" type="line"/>
      <point x="966" y="0" type="line"/>
    </contour>
    <contour>
      <point x="1276" y="900" type="line"/>
      <point x="966" y="0" type="line"/>
      <point x="1226" y="0" type="line"/>
      <point x="1536" y="900" type="line"/>
    </contour>
  </outline>
</glyph>
<glyph name="x" format="2">
  <advance width="511"/>
  <unicode hex="0078"/>
  <outline>
    <contour>
      <point x="43" y="500" type="line"/>
      <point x="338" y="0" type="line"/>
      <point x="469" y="0" type="line"/>
      <point x="162" y="500" type="line"/>
    </contour>
    <contour>
      <point x="338" y="450" type="line"/>
      <point x="42" y="0" type="line"/>
      <point x="172" y="0" type="line"/>
      <point x="469" y="450" type="line"/>
    </contour>
    <contour>
      <point x="338" y="500" type="line"/>
      <point x="338" y="450" type="line"/>
      <point x="469" y="450" type="line"/>
      <point x="469" y="500" type="line"/>
    </contour>
  </outline>
</glyph>
<glyph name="y" format="2">
  <advance width="510"/>
  <unicode hex="0079"/>
  <outline>
    <contour>
      <point x="42" y="500" type="line"/>
      <point x="182" y="0" type="line"/>
      <point x="312" y="0" type="line"/>
      <point x="161" y="500" type="line"/>
    </contour>
    <contour>
      <point x="337" y="450" type="line"/>
      <point x="182" y="0" type="line"/>
      <point x="312" y="0" type="line"/>
      <point x="468" y="450" type="line"/>
    </contour>
    <contour>
      <point x="337" y="500" type="line"/>
      <point x="337" y="450" type="line"/>
      <point x="468" y="450" type="line"/>
      <point x="468" y="500" type="line"/>
    </contour>
    <contour>
      <point x="182" y="0" type="line"/>
      <point x="187" y="-18"/>
      <point x="161" y="-87"/>
      <point x="82" y="-87" type="curve"/>
      <point x="82" y="-200" type="line"/>
      <point x="199" y="-200"/>
      <point x="260" y="-160"/>
      <point x="312" y="0" type="curve"/>
    </contour>
  </outline>
</glyph>
<glyph name="braceleft" format="2">
  <advance width="692"/>
  <unicode hex="007B"/>
  <outline>
    <contour>
      <point x="632" y="1527" type="line"/>
      <point x="450" y="1527"/>
      <point x="130" y="1389"/>
      <point x="163" y="1182" type="curve" smooth="yes"/>
      <point x="207" y="902" type="line" smooth="yes"/>
      <point x="225" y="787"/>
      <point x="220" y="755"/>
      <point x="72" y="755" type="curve"/>
      <point x="72" y="589" type="line"/>
      <point x="219" y="589"/>
      <point x="228" y="553"/>
      <point x="207" y="438" type="curve" smooth="yes"/>
      <point x="163" y="193" type="line" smooth="yes"/>
      <point x="125" y="-17"/>
      <point x="450" y="-155"/>
      <point x="632" y="-155" type="curve"/>
      <point x="632" y="112" type="line"/>
      <point x="537" y="112"/>
      <point x="397" y="121"/>
      <point x="421" y="236" type="curve" smooth="yes"/>
      <point x="466" y="452" type="line" smooth="yes"/>
      <point x="496" y="595"/>
      <point x="384" y="651"/>
      <point x="366" y="671" type="curve"/>
      <point x="383" y="692"/>
      <point x="490" y="757"/>
      <point x="466" y="888" type="curve" smooth="yes"/>
      <point x="421" y="1136" type="line" smooth="yes"/>
      <point x="400" y="1249"/>
      <point x="538" y="1260"/>
      <point x="632" y="1260" type="curve"/>
    </contour>
  </outline>
</glyph>
<glyph name="asciitilde" format="2">
  <advance width="1174"/>
  <unicode hex="007E"/>
  <outline>
    <contour>
      <point x="100" y="664" type="curve"/>
      <point x="100" y="404" type="line"/>
      <point x="425" y="554"/>
      <point x="749" y="254"/>
      <point x="1074" y="404" type="curve"/>
      <point x="1074" y="664" type="line"/>
      <point x="749" y="514"/>
      <point x="425" y="814"/>
    </contour>
  </outline>
</glyph>
<glyph name="exclamdown" format="2">
  <advance width="500"/>
  <unicode hex="00A1"/>
  <outline>
    <contour>
      <point x="172" y="1200" type="curve" smooth="yes"/>
      <point x="100" y="1200"/>
      <point x="42" y="1142"/>
      <point x="42" y="1070" type="curve" smooth="yes"/>
      <point x="42" y="998"/>
      <point x="100" y="940"/>
      <point x="172" y="940" type="curve" smooth="yes"/>
      <point x="244" y="940"/>
      <point x="302" y="998"/>
      <point x="302" y="1070" type="curve" smooth="yes"/>
      <point x="302" y="1142"/>
      <point x="244" y="1200"/>
    </contour>
    <contour>
      <point x="42" y="820" type="line"/>
      <point x="42" y="-170" type="line"/>
      <point x="302" y="-200" type="line"/>
      <point x="302" y="820" type="line"/>
    </contour>
  </outline>
</glyph>
<glyph name="sterling" format="2">
  <advance width="1069"/>
  <unicode hex="00A3"/>
  <outline>
    <contour>
      <point x="626" y="1400" type="curve" smooth="yes"/>
      <point x="406" y="1400"/>
      <point x="269" y="1241"/>
      <point x="269" y="1039" type="curve"/>
      <point x="269" y="867" type="line"/>
      <point x="100" y="867" type="line"/>
      <point x="100" y="634" type="line"/>
      <point x="269" y="634" type="line"/>
      <point x="269" y="519" type="line" smooth="yes"/>
      <point x="269" y="404"/>
      <point x="240" y="341"/>
      <point x="105" y="260" type="curve"/>
      <point x="105" y="0" type="line"/>
      <point x="942" y="0" type="line"/>
      <point x="957" y="260" type="line"/>
      <point x="383" y="260" type="line"/>
      <point x="487" y="318"/>
      <point x="505" y="421"/>
      <point x="505" y="532" type="curve" smooth="yes"/>
      <point x="505" y="634" type="line"/>
      <point x="822" y="634" type="line"/>
      <point x="822" y="867" type="line"/>
      <point x="505" y="867" type="line"/>
      <point x="504" y="1022" type="line" smooth="yes"/>
      <point x="503" y="1146"/>
      <point x="541" y="1171"/>
      <point x="626" y="1171" type="curve" smooth="yes"/>
      <point x="729" y="1171"/>
      <point x="808" y="1134"/>
      <point x="879" y="1051" type="curve"/>
      <point x="969" y="1230" type="line"/>
      <point x="882" y="1347"/>
      <point x="759" y="1400"/>
    </contour>
  </outline>
</glyph>
<glyph name="currency" format="2">
  <advance width="1182"/>
  <unicode hex="00A4"/>
  <outline>
    <contour>
      <point x="100" y="332" type="line"/>
      <point x="303" y="129" type="line"/>
      <point x="440" y="267" type="line"/>
      <point x="487" y="247"/>
      <point x="537" y="236"/>
      <point x="591" y="236" type="curve" smooth="yes"/>
      <point x="645" y="236"/>
      <point x="695" y="247"/>
      <point x="742" y="267" type="curve"/>
      <point x="879" y="129" type="line"/>
      <point x="1082" y="332" type="line"/>
      <point x="944" y="469" type="line"/>
      <point x="965" y="516"/>
      <point x="976" y="567"/>
      <point x="976" y="621" type="curve" smooth="yes"/>
      <point x="976" y="675"/>
      <point x="965" y="726"/>
      <point x="945" y="772" type="curve"/>
      <point x="1082" y="908" type="line"/>
      <point x="879" y="1111" type="line"/>
      <point x="743" y="974" type="line"/>
      <point x="697" y="995"/>
      <point x="645" y="1006"/>
      <point x="591" y="1006" type="curve" smooth="yes"/>
      <point x="537" y="1006"/>
      <point x="485" y="995"/>
      <point x="438" y="975" type="curve"/>
      <point x="303" y="1111" type="line"/>
      <point x="100" y="908" type="line"/>
      <point x="237" y="772" type="line"/>
      <point x="217" y="726"/>
      <point x="206" y="675"/>
      <point x="206" y="621" type="curve" smooth="yes"/>
      <point x="206" y="567"/>
      <point x="217" y="516"/>
      <point x="237" y="468" type="curve"/>
    </contour>
    <contour>
      <point x="591" y="421" type="curve" smooth="yes"/>
      <point x="481" y="421"/>
      <point x="391" y="510"/>
      <point x="391" y="621" type="curve" smooth="yes"/>
      <point x="391" y="732"/>
      <point x="481" y="821"/>
      <point x="591" y="821" type="curve" smooth="yes"/>
      <point x="701" y="821"/>
      <point x="791" y="732"/>
      <point x="791" y="621" type="curve" smooth="yes"/>
      <point x="791" y="510"/>
      <point x="701" y="421"/>
    </contour>
  </outline>
</glyph>
<glyph name="brokenbar" format="2">
  <advance width="500"/>
  <unicode hex="00A6"/>
  <outline>
    <contour>
      <point x="120" y="-155" type="line"/>
      <point x="380" y="-155" type="line"/>
      <point x="380" y="493" type="line"/>
      <point x="120" y="493" type="line"/>
    </contour>
    <contour>
      <point x="120" y="752" type="line"/>
      <point x="380" y="752" type="line"/>
      <point x="380" y="1400" type="line"/>
      <point x="120" y="1400" type="line"/>
    </contour>
  </outline>
</glyph>
<glyph name="copyright" format="2">
  <advance width="1659"/>
  <unicode hex="00A9"/>
  <outline>
    <contour>
      <point x="705" y="130" type="move"/>
    </contour>
    <contour>
      <point x="705" y="130" type="move"/>
    </contour>
    <contour>
      <point x="705" y="130" type="move"/>
    </contour>
    <contour>
      <point x="100" y="670" type="curve" smooth="yes"/>
      <point x="100" y="268"/>
      <point x="426" y="-60"/>
      <point x="830" y="-60" type="curve" smooth="yes"/>
      <point x="1233" y="-60"/>
      <point x="1559" y="268"/>
      <point x="1559" y="670" type="curve" smooth="yes"/>
      <point x="1559" y="1073"/>
      <point x="1233" y="1400"/>
      <point x="830" y="1400" type="curve" smooth="yes"/>
      <point x="426" y="1400"/>
      <point x="100" y="1073"/>
    </contour>
    <contour>
      <point x="310" y="670" type="curve" smooth="yes"/>
      <point x="310" y="956"/>
      <point x="543" y="1190"/>
      <point x="830" y="1190" type="curve" smooth="yes"/>
      <point x="1111" y="1190"/>
      <point x="1350" y="956"/>
      <point x="1350" y="670" type="curve" smooth="yes"/>
      <point x="1350" y="383"/>
      <point x="1117" y="150"/>
      <point x="830" y="150" type="curve" smooth="yes"/>
      <point x="543" y="150"/>
      <point x="310" y="383"/>
    </contour>
    <contour>
      <point x="547" y="602" type="line" smooth="yes"/>
      <point x="547" y="435"/>
      <point x="672" y="322"/>
      <point x="819" y="322" type="curve" smooth="yes"/>
      <point x="952" y="322"/>
      <point x="1106" y="366"/>
      <point x="1106" y="558" type="curve"/>
      <point x="932" y="558" type="line"/>
      <point x="932" y="493"/>
      <point x="890" y="493"/>
      <point x="806" y="493" type="curve" smooth="yes"/>
      <point x="742" y="493"/>
      <point x="720" y="531"/>
      <point x="720" y="602" type="curve" smooth="yes"/>
      <point x="720" y="709" type="line" smooth="yes"/>
      <point x="720" y="779"/>
      <point x="742" y="818"/>
      <point x="806" y="818" type="curve" smooth="yes"/>
      <point x="890" y="818"/>
      <point x="932" y="818"/>
      <point x="932" y="753" type="curve"/>
      <point x="1106" y="753" type="line"/>
      <point x="1106" y="931"/>
      <point x="952" y="989"/>
      <point x="819" y="989" type="curve" smooth="yes"/>
      <point x="672" y="989"/>
      <point x="547" y="875"/>
      <point x="547" y="709" type="curve" smooth="yes"/>
    </contour>
  </outline>
</glyph>
<glyph name="logicalnot" format="2">
  <advance width="1174"/>
  <unicode hex="00AC"/>
  <outline>
    <contour>
      <point x="100" y="825" type="line"/>
      <point x="100" y="565" type="line"/>
      <point x="1074" y="565" type="line"/>
      <point x="1074" y="825" type="line"/>
    </contour>
    <contour>
      <point x="1074" y="825" type="line"/>
      <point x="814" y="825" type="line"/>
      <point x="814" y="145" type="line"/>
      <point x="1074" y="145" type="line"/>
    </contour>
  </outline>
</glyph>
<glyph name="registered" format="2">
  <advance width="1243"/>
  <unicode hex="00AE"/>
  <outline>
    <contour>
      <point x="526" y="623" type="move"/>
    </contour>
    <contour>
      <point x="526" y="623" type="move"/>
    </contour>
    <contour>
      <point x="526" y="623" type="move"/>
    </contour>
    <contour>
      <point x="60" y="1038" type="curve" smooth="yes"/>
      <point x="60" y="729"/>
      <point x="311" y="477"/>
      <point x="622" y="477" type="curve" smooth="yes"/>
      <point x="932" y="477"/>
      <point x="1183" y="729"/>
      <point x="1183" y="1038" type="curve" smooth="yes"/>
      <point x="1183" y="1348"/>
      <point x="932" y="1600"/>
      <point x="622" y="1600" type="curve" smooth="yes"/>
      <point x="311" y="1600"/>
      <point x="60" y="1348"/>
    </contour>
    <contour>
      <point x="222" y="1038" type="curve" smooth="yes"/>
      <point x="222" y="1258"/>
      <point x="402" y="1438"/>
      <point x="622" y="1438" type="curve" smooth="yes"/>
      <point x="843" y="1438"/>
      <point x="1022" y="1258"/>
      <point x="1022" y="1038" type="curve" smooth="yes"/>
      <point x="1022" y="818"/>
      <point x="843" y="638"/>
      <point x="622" y="638" type="curve" smooth="yes"/>
      <point x="401" y="638"/>
      <point x="222" y="818"/>
    </contour>
    <contour>
      <point x="463" y="823" type="line"/>
      <point x="565" y="823" type="line"/>
      <point x="565" y="1005" type="line"/>
      <point x="623" y="1005" type="line"/>
      <point x="698" y="823" type="line"/>
      <point x="800" y="823" type="line"/>
      <point x="720" y="1016" type="line"/>
      <point x="835" y="1069"/>
      <point x="816" y="1277"/>
      <point x="664" y="1277" type="curve" smooth="yes"/>
      <point x="463" y="1277" type="line"/>
    </contour>
    <contour>
      <point x="565" y="1090" type="line"/>
      <point x="565" y="1193" type="line"/>
      <point x="664" y="1193" type="line" smooth="yes"/>
      <point x="715" y="1193"/>
      <point x="715" y="1090"/>
      <point x="664" y="1090" type="curve" smooth="yes"/>
    </contour>
  </outline>
</glyph>
<glyph name="degree" format="2">
  <advance width="571"/>
  <unicode hex="00B0"/>
  <outline>
    <contour>
      <point x="30" y="1160" type="curve" smooth="yes"/>
      <point x="30" y="1020"/>
      <point x="144" y="905"/>
      <point x="286" y="905" type="curve" smooth="yes"/>
      <point x="427" y="905"/>
      <point x="541" y="1020"/>
      <point x="541" y="1160" type="curve" smooth="yes"/>
      <point x="541" y="1301"/>
      <point x="427" y="1416"/>
      <point x="286" y="1416" type="curve" smooth="yes"/>
      <point x="144" y="1416"/>
      <point x="30" y="1301"/>
    </contour>
    <contour>
      <point x="187" y="1160" type="curve" smooth="yes"/>
      <point x="187" y="1215"/>
      <point x="232" y="1260"/>
      <point x="287" y="1260" type="curve" smooth="yes"/>
      <point x="342" y="1260"/>
      <point x="387" y="1215"/>
      <point x="387" y="1160" type="curve" smooth="yes"/>
      <point x="387" y="1105"/>
      <point x="342" y="1060"/>
      <point x="287" y="1060" type="curve" smooth="yes"/>
      <point x="232" y="1060"/>
      <point x="187" y="1105"/>
    </contour>
  </outline>
</glyph>
<glyph name="plusminus" format="2">
  <advance width="1050"/>
  <unicode hex="00B1"/>
  <outline>
    <contour>
      <point x="100" y="0" type="line"/>
      <point x="950" y="0" type="line"/>
      <point x="950" y="200" type="line"/>
      <point x="100" y="200" type="line"/>
    </contour>
    <contour>
      <point x="950" y="719" type="line"/>
      <point x="100" y="719" type="line"/>
      <point x="100" y="519" type="line"/>
      <point x="950" y="519" type="line"/>
    </contour>
    <contour>
      <point x="425" y="1000" type="line"/>
      <point x="425" y="238" type="line"/>
      <point x="625" y="238" type="line"/>
      <point x="625" y="1000" type="line"/>
    </contour>
  </outline>
</glyph>
<glyph name="acute" format="2">
  <advance width="1200"/>
  <unicode hex="00B4"/>
  <outline>
    <contour>
      <point x="388" y="1099" type="line"/>
      <point x="608" y="1099" type="line"/>
      <point x="804" y="1301" type="line"/>
      <point x="544" y="1301" type="line"/>
    </contour>
  </outline>
</glyph>
<glyph name="periodcentered" format="2">
  <advance width="380"/>
  <unicode hex="00B7"/>
  <outline>
    <contour>
      <point x="190" y="420" type="curve" smooth="yes"/>
      <point x="262" y="420"/>
      <point x="320" y="478"/>
      <point x="320" y="550" type="curve" smooth="yes"/>
      <point x="320" y="622"/>
      <point x="262" y="680"/>
      <point x="190" y="680" type="curve" smooth="yes"/>
      <point x="118" y="680"/>
      <point x="60" y="622"/>
      <point x="60" y="550" type="curve" smooth="yes"/>
      <point x="60" y="478"/>
      <point x="118" y="420"/>
    </contour>
  </outline>
</glyph>
<glyph name="questiondown" format="2">
  <advance width="1000"/>
  <unicode hex="00BF"/>
  <outline>
    <contour>
      <point x="42" y="-78" type="curve"/>
      <point x="214" y="94" type="line"/>
      <point x="246" y="62"/>
      <point x="294" y="40"/>
      <point x="356" y="40" type="curve" smooth="yes"/>
      <point x="488" y="40"/>
      <point x="544" y="144"/>
      <point x="544" y="214" type="curve" smooth="yes"/>
      <point x="544" y="290"/>
      <point x="460" y="376"/>
      <point x="356" y="376" type="curve"/>
      <point x="356" y="626" type="line"/>
      <point x="646" y="626"/>
      <point x="802" y="478"/>
      <point x="802" y="214" type="curve" smooth="yes"/>
      <point x="802" y="-20"/>
      <point x="600" y="-200"/>
      <point x="356" y="-200" type="curve" smooth="yes"/>
      <point x="236" y="-200"/>
      <point x="124" y="-152"/>
    </contour>
    <contour>
      <point x="226" y="1070" type="curve" smooth="yes"/>
      <point x="226" y="1142"/>
      <point x="284" y="1200"/>
      <point x="356" y="1200" type="curve" smooth="yes"/>
      <point x="428" y="1200"/>
      <point x="486" y="1142"/>
      <point x="486" y="1070" type="curve" smooth="yes"/>
      <point x="486" y="998"/>
      <point x="428" y="940"/>
      <point x="356" y="940" type="curve" smooth="yes"/>
      <point x="284" y="940"/>
      <point x="226" y="998"/>
    </contour>
    <contour>
      <point x="226" y="820" type="line"/>
      <point x="486" y="820" type="line"/>
      <point x="486" y="376" type="line"/>
      <point x="226" y="376" type="line"/>
    </contour>
  </outline>
</glyph>
<glyph name="AE" format="2">
  <advance width="1700"/>
  <unicode hex="00C6"/>
  <outline>
    <contour>
      <point x="332" y="1400" type="line"/>
      <point x="42" y="0" type="line"/>
      <point x="302" y="0" type="line"/>
      <point x="622" y="1400" type="line"/>
    </contour>
    <contour>
      <point x="738" y="558" type="line"/>
      <point x="186" y="558" type="line"/>
      <point x="186" y="298" type="line"/>
      <point x="738" y="298" type="line"/>
    </contour>
    <contour>
      <point x="622" y="1400" type="line"/>
      <point x="332" y="1400" type="line"/>
      <point x="622" y="0" type="line"/>
      <point x="882" y="0" type="line"/>
    </contour>
    <contour>
      <point x="622" y="1400" type="line"/>
      <point x="622" y="0" type="line"/>
      <point x="882" y="0" type="line"/>
      <point x="882" y="1400" type="line"/>
    </contour>
    <contour>
      <point x="1462" y="260" type="line"/>
      <point x="670" y="260" type="line"/>
      <point x="670" y="0" type="line"/>
      <point x="1462" y="0" type="line"/>
    </contour>
    <contour>
      <point x="1462" y="1400" type="line"/>
      <point x="672" y="1400" type="line"/>
      <point x="672" y="1140" type="line"/>
      <point x="1462" y="1140" type="line"/>
    </contour>
    <contour>
      <point x="882" y="700" type="move"/>
    </contour>
    <contour>
      <point x="1462" y="830" type="line"/>
      <point x="672" y="830" type="line"/>
      <point x="672" y="570" type="line"/>
      <point x="1462" y="570" type="line"/>
    </contour>
  </outline>
</glyph>
<glyph name="Ccedilla" format="2">
  <advance width="1179"/>
  <unicode hex="00C7"/>
  <outline>
    <contour>
      <point x="461" y="22" type="line"/>
      <point x="461" y="-64"/>
      <point x="389" y="-180"/>
      <point x="233" y="-180" type="curve"/>
      <point x="429" y="-316" type="line"/>
      <point x="653" y="-318"/>
      <point x="737" y="-66"/>
      <point x="737" y="22" type="curve"/>
    </contour>
    <contour>
      <point x="613" y="0" type="curve" smooth="yes"/>
      <point x="873" y="0"/>
      <point x="1043" y="174"/>
      <point x="1119" y="402" type="curve"/>
      <point x="865" y="544" type="line"/>
      <point x="833" y="388"/>
      <point x="749" y="262"/>
      <point x="613" y="262" type="curve" smooth="yes"/>
      <point x="255" y="262"/>
      <point x="255" y="1140"/>
      <point x="613" y="1138" type="curve" smooth="yes"/>
      <point x="735" y="1138"/>
      <point x="815" y="1038"/>
      <point x="853" y="904" type="curve"/>
      <point x="1101" y="1044" type="line"/>
      <point x="1019" y="1248"/>
      <point x="855" y="1400"/>
      <point x="613" y="1400" type="curve" smooth="yes"/>
      <point x="-123" y="1400"/>
      <point x="-125" y="0"/>
    </contour>
  </outline>
</glyph>
<glyph name="Eth" format="2">
  <advance width="1200"/>
  <unicode hex="00D0"/>
  <outline>
    <contour>
      <point x="102" y="1400" type="line"/>
      <point x="102" y="0" type="line"/>
      <point x="362" y="0" type="line"/>
      <point x="362" y="1400" type="line"/>
    </contour>
    <contour>
      <point x="554" y="262" type="line"/>
      <point x="150" y="262" type="line"/>
      <point x="150" y="0" type="line"/>
      <point x="554" y="0" type="line"/>
    </contour>
    <contour>
      <point x="554" y="1400" type="line"/>
      <point x="150" y="1400" type="line"/>
      <point x="150" y="1138" type="line"/>
      <point x="554" y="1138" type="line"/>
    </contour>
    <contour>
      <point x="554" y="0" type="move"/>
    </contour>
    <contour>
      <point x="554" y="262" type="curve"/>
      <point x="554" y="0" type="line"/>
      <point x="1292" y="0"/>
      <point x="1290" y="1400"/>
      <point x="554" y="1400" type="curve"/>
      <point x="554" y="1138" type="line"/>
      <point x="912" y="1140"/>
      <point x="912" y="262"/>
    </contour>
    <contour>
      <point x="42" y="830" type="line"/>
      <point x="42" y="530" type="line"/>
      <point x="568" y="530" type="line"/>
      <point x="568" y="830" type="line"/>
    </contour>
  </outline>
</glyph>
<glyph name="Odieresis" format="2">
  <advance width="636"/>
  <unicode hex="00D6"/>
  <outline>
    <contour>
      <point x="318" y="0" type="move"/>
    </contour>
    <contour>
      <point x="318" y="131" type="curve"/>
      <point x="318" y="0" type="line"/>
      <point x="687" y="0"/>
      <point x="686" y="700"/>
      <point x="318" y="700" type="curve"/>
      <point x="318" y="569" type="line"/>
      <point x="497" y="570"/>
      <point x="497" y="131"/>
    </contour>
    <contour>
      <point x="318" y="0" type="move"/>
    </contour>
    <contour>
      <point x="318" y="131" type="line"/>
      <point x="139" y="131"/>
      <point x="139" y="570"/>
      <point x="318" y="569" type="curve"/>
      <point x="318" y="700" type="line"/>
      <point x="-50" y="700"/>
      <point x="-51" y="0"/>
      <point x="318" y="0" type="curve"/>
    </contour>
    <component base="dieresiscomb" xOffset="66" yOffset="200"/>
  </outline>
</glyph>
<glyph name="Udieresis" format="2">
  <advance width="960"/>
  <unicode hex="00DC"/>
  <outline>
    <contour>
      <point x="60" y="1400" type="line"/>
      <point x="60" y="330" type="line"/>
      <point x="320" y="330" type="line"/>
      <point x="320" y="1400" type="line"/>
    </contour>
    <contour>
      <point x="640" y="1400" type="line"/>
      <point x="640" y="330" type="line"/>
      <point x="900" y="330" type="line"/>
      <point x="900" y="1400" type="line"/>
    </contour>
    <contour>
      <point x="320" y="330" type="curve"/>
      <point x="60" y="330" type="line"/>
      <point x="62" y="-112"/>
      <point x="902" y="-110"/>
      <point x="900" y="330" type="curve"/>
      <point x="640" y="330" type="line"/>
      <point x="640" y="200"/>
      <point x="320" y="200"/>
    </contour>
    <component base="dieresiscomb.case"/>
  </outline>
</glyph>
<glyph name="Thorn" format="2">
  <advance width="961"/>
  <unicode hex="00DE"/>
  <outline>
    <contour>
      <point x="60" y="1400" type="line"/>
      <point x="60" y="0" type="line"/>
      <point x="320" y="0" type="line"/>
      <point x="320" y="1400" type="line"/>
    </contour>
    <contour>
      <point x="198" y="380" type="line"/>
      <point x="570" y="380" type="line"/>
      <point x="570" y="640" type="line"/>
      <point x="198" y="640" type="line"/>
    </contour>
    <contour>
      <point x="198" y="960" type="line"/>
      <point x="570" y="960" type="line"/>
      <point x="570" y="1220" type="line"/>
      <point x="198" y="1220" type="line"/>
    </contour>
    <contour>
      <point x="570" y="640" type="curve"/>
      <point x="570" y="380" type="line"/>
      <point x="1012" y="382"/>
      <point x="1010" y="1222"/>
      <point x="570" y="1220" type="curve"/>
      <point x="570" y="960" type="line"/>
      <point x="700" y="960"/>
      <point x="700" y="640"/>
    </contour>
  </outline>
</glyph>
<glyph name="germandbls" format="2">
  <advance width="524"/>
  <unicode hex="00DF"/>
  <outline>
    <contour>
      <point x="42" y="631" type="curve"/>
      <point x="42" y="0" type="line"/>
      <point x="172" y="0" type="line"/>
      <point x="172" y="700" type="line"/>
      <point x="87" y="700" type="line"/>
      <point x="42" y="700"/>
      <point x="42" y="660"/>
    </contour>
    <contour>
      <point x="233" y="280" type="line"/>
      <point x="297" y="280" type="line"/>
      <point x="297" y="410" type="line"/>
      <point x="233" y="410" type="line"/>
    </contour>
    <contour>
      <point x="111" y="570" type="line"/>
      <point x="297" y="570" type="line"/>
      <point x="297" y="700" type="line"/>
      <point x="111" y="700" type="line"/>
    </contour>
    <contour>
      <point x="297" y="410" type="curve"/>
      <point x="297" y="280" type="line"/>
      <point x="518" y="280"/>
      <point x="517" y="700"/>
      <point x="297" y="700" type="curve"/>
      <point x="297" y="570" type="line"/>
      <point x="362" y="570"/>
      <point x="362" y="410"/>
    </contour>
    <contour>
      <point x="297" y="129" type="curve"/>
      <point x="318" y="0" type="line"/>
      <point x="537" y="0"/>
      <point x="536" y="410"/>
      <point x="318" y="410" type="curve"/>
      <point x="297" y="280" type="line"/>
      <point x="362" y="280"/>
      <point x="362" y="129"/>
    </contour>
    <contour>
      <point x="233" y="0" type="line"/>
      <point x="318" y="0" type="line"/>
      <point x="297" y="129" type="line"/>
      <point x="233" y="130" type="line"/>
    </contour>
  </outline>
</glyph>
<glyph name="ae" format="2">
  <advance width="823"/>
  <unicode hex="00E6"/>
  <outline>
    <contour>
      <point x="239" y="252" type="line"/>
      <point x="302" y="252"/>
      <point x="319" y="232"/>
      <point x="319" y="174" type="curve"/>
      <point x="450" y="174" type="line"/>
      <point x="450" y="344"/>
      <point x="335" y="339"/>
      <point x="235" y="339" type="curve"/>
    </contour>
    <contour>
      <point x="450" y="174" type="line"/>
    </contour>
    <contour>
      <point x="235" y="0" type="line"/>
    </contour>
    <contour>
      <point x="450" y="174" type="line"/>
    </contour>
    <contour>
      <point x="219" y="101" type="curve"/>
      <point x="235" y="0" type="line"/>
      <point x="336" y="10"/>
      <point x="450" y="73"/>
      <point x="450" y="174" type="curve"/>
      <point x="319" y="174" type="line"/>
      <point x="319" y="122"/>
      <point x="282" y="101"/>
    </contour>
    <contour>
      <point x="235" y="101" type="line"/>
      <point x="191" y="101"/>
      <point x="153" y="112"/>
      <point x="153" y="174" type="curve"/>
      <point x="42" y="174" type="line"/>
      <point x="42" y="4"/>
      <point x="135" y="0"/>
      <point x="235" y="0" type="curve"/>
    </contour>
    <contour>
      <point x="257" y="252" type="curve"/>
      <point x="257" y="339" type="line"/>
      <point x="157" y="339"/>
      <point x="42" y="344"/>
      <point x="42" y="174" type="curve"/>
      <point x="153" y="174" type="line"/>
      <point x="153" y="203"/>
      <point x="154" y="253"/>
    </contour>
    <contour>
      <point x="96" y="500" type="curve"/>
      <point x="96" y="398" type="line"/>
      <point x="299" y="421"/>
      <point x="349" y="396"/>
      <point x="349" y="331" type="curve"/>
      <point x="450" y="174" type="line"/>
      <point x="450" y="471"/>
      <point x="411" y="550"/>
    </contour>
    <contour>
      <point x="350" y="100" type="line"/>
      <point x="351" y="0" type="line"/>
      <point x="449" y="0" type="line"/>
      <point x="450" y="174" type="line"/>
    </contour>
    <contour>
      <point x="362" y="210" type="line"/>
      <point x="491" y="210" type="line"/>
      <point x="491" y="290" type="line"/>
      <point x="362" y="290" type="line"/>
    </contour>
    <contour>
      <point x="491" y="28" type="move"/>
    </contour>
    <contour>
      <point x="491" y="28" type="move"/>
    </contour>
    <contour>
      <point x="491" y="28" type="move"/>
    </contour>
    <contour>
      <point x="556" y="128" type="curve"/>
      <point x="566" y="0" type="line"/>
      <point x="688" y="0"/>
      <point x="728" y="24"/>
      <point x="757" y="85" type="curve"/>
      <point x="674" y="157" type="line"/>
      <point x="648" y="119"/>
      <point x="589" y="128"/>
    </contour>
    <contour>
      <point x="556" y="128" type="line"/>
      <point x="508" y="128"/>
      <point x="491" y="157"/>
      <point x="491" y="210" type="curve"/>
      <point x="362" y="210" type="line"/>
      <point x="362" y="85"/>
      <point x="456" y="0"/>
      <point x="566" y="0" type="curve"/>
    </contour>
    <contour>
      <point x="556" y="372" type="line"/>
      <point x="619" y="372"/>
      <point x="650" y="354"/>
      <point x="650" y="300" type="curve"/>
      <point x="781" y="300" type="line"/>
      <point x="781" y="434"/>
      <point x="666" y="500"/>
      <point x="566" y="500" type="curve"/>
    </contour>
    <contour>
      <point x="556" y="372" type="curve"/>
      <point x="566" y="500" type="line"/>
      <point x="456" y="500"/>
      <point x="362" y="415"/>
      <point x="362" y="290" type="curve"/>
      <point x="491" y="290" type="line"/>
      <point x="491" y="343"/>
      <point x="508" y="372"/>
    </contour>
    <contour>
      <point x="477" y="300" type="line"/>
      <point x="477" y="219" type="line"/>
      <point x="781" y="220" type="line"/>
      <point x="781" y="300" type="line"/>
    </contour>
  </outline>
</glyph>
<glyph name="ccedilla" format="2">
  <advance width="503"/>
  <unicode hex="00E7"/>
  <outline>
    <contour>
      <point x="42" y="210" type="line"/>
      <point x="171" y="210" type="line"/>
      <point x="171" y="290" type="line"/>
      <point x="42" y="290" type="line"/>
    </contour>
    <contour>
      <point x="171" y="28" type="move"/>
    </contour>
    <contour>
      <point x="171" y="28" type="move"/>
    </contour>
    <contour>
      <point x="171" y="28" type="move"/>
    </contour>
    <contour>
      <point x="236" y="128" type="curve"/>
      <point x="246" y="0" type="line"/>
      <point x="346" y="0"/>
      <point x="461" y="33"/>
      <point x="461" y="177" type="curve"/>
      <point x="330" y="177" type="line"/>
      <point x="330" y="128"/>
      <point x="299" y="128"/>
    </contour>
    <contour>
      <point x="236" y="128" type="line"/>
      <point x="188" y="128"/>
      <point x="171" y="157"/>
      <point x="171" y="210" type="curve"/>
      <point x="42" y="210" type="line"/>
      <point x="42" y="85"/>
      <point x="136" y="0"/>
      <point x="246" y="0" type="curve"/>
    </contour>
    <contour>
      <point x="236" y="372" type="line"/>
      <point x="299" y="372"/>
      <point x="330" y="377"/>
      <point x="330" y="323" type="curve"/>
      <point x="461" y="323" type="line"/>
      <point x="461" y="457"/>
      <point x="346" y="500"/>
      <point x="246" y="500" type="curve"/>
    </contour>
    <contour>
      <point x="236" y="372" type="curve"/>
      <point x="246" y="500" type="line"/>
      <point x="136" y="500"/>
      <point x="42" y="415"/>
      <point x="42" y="290" type="curve"/>
      <point x="171" y="290" type="line"/>
      <point x="171" y="343"/>
      <point x="188" y="372"/>
    </contour>
    <component base="cedillacomb" xOffset="-38"/>
  </outline>
</glyph>
<glyph name="eth" format="2">
  <advance width="977"/>
  <unicode hex="00F0"/>
  <outline>
    <contour>
      <point x="900" y="0" type="line"/>
      <point x="900" y="466"/>
      <point x="1072" y="1400"/>
      <point x="322" y="1400" type="curve"/>
      <point x="218" y="1210" type="line"/>
      <point x="562" y="1200"/>
      <point x="640" y="924"/>
      <point x="640" y="580" type="curve" smooth="yes"/>
      <point x="640" y="530"/>
      <point x="640" y="472"/>
      <point x="640" y="420" type="curve" smooth="yes"/>
      <point x="640" y="272"/>
      <point x="628" y="120"/>
      <point x="630" y="0" type="curve"/>
    </contour>
    <contour>
      <point x="322" y="420" type="line"/>
      <point x="322" y="508" type="line"/>
      <point x="60" y="508" type="line"/>
      <point x="60" y="420" type="line"/>
    </contour>
    <contour>
      <point x="510" y="256" type="line"/>
      <point x="384" y="256"/>
      <point x="322" y="272"/>
      <point x="322" y="420" type="curve"/>
      <point x="60" y="420" type="line"/>
      <point x="60" y="80"/>
      <point x="290" y="0"/>
      <point x="490" y="0" type="curve"/>
    </contour>
    <contour>
      <point x="510" y="256" type="curve"/>
      <point x="490" y="0" type="line"/>
      <point x="710" y="0"/>
      <point x="790" y="170"/>
      <point x="790" y="420" type="curve"/>
      <point x="640" y="420" type="line"/>
      <point x="640" y="314"/>
      <point x="606" y="256"/>
    </contour>
    <contour>
      <point x="640" y="56" type="move"/>
    </contour>
    <contour>
      <point x="322" y="420" type="line"/>
      <point x="322" y="508" type="line"/>
      <point x="60" y="508" type="line"/>
      <point x="60" y="420" type="line"/>
    </contour>
    <contour>
      <point x="510" y="256" type="line"/>
      <point x="384" y="256"/>
      <point x="322" y="272"/>
      <point x="322" y="420" type="curve"/>
      <point x="60" y="420" type="line"/>
      <point x="60" y="80"/>
      <point x="290" y="0"/>
      <point x="490" y="0" type="curve"/>
    </contour>
    <contour>
      <point x="510" y="256" type="curve"/>
      <point x="490" y="0" type="line"/>
      <point x="710" y="0"/>
      <point x="790" y="170"/>
      <point x="790" y="420" type="curve"/>
      <point x="640" y="420" type="line"/>
      <point x="640" y="314"/>
      <point x="606" y="256"/>
    </contour>
    <contour>
      <point x="640" y="56" type="move"/>
    </contour>
    <contour>
      <point x="322" y="420" type="line"/>
      <point x="322" y="508" type="line"/>
      <point x="60" y="508" type="line"/>
      <point x="60" y="420" type="line"/>
    </contour>
    <contour>
      <point x="510" y="256" type="line"/>
      <point x="384" y="256"/>
      <point x="322" y="272"/>
      <point x="322" y="420" type="curve"/>
      <point x="60" y="420" type="line"/>
      <point x="60" y="80"/>
      <point x="290" y="0"/>
      <point x="490" y="0" type="curve"/>
    </contour>
    <contour>
      <point x="510" y="256" type="curve"/>
      <point x="490" y="0" type="line"/>
      <point x="710" y="0"/>
      <point x="790" y="170"/>
      <point x="790" y="420" type="curve"/>
      <point x="640" y="420" type="line"/>
      <point x="640" y="314"/>
      <point x="606" y="256"/>
    </contour>
    <contour>
      <point x="640" y="56" type="move"/>
    </contour>
    <contour>
      <point x="322" y="420" type="line"/>
      <point x="322" y="508" type="line"/>
      <point x="60" y="508" type="line"/>
      <point x="60" y="420" type="line"/>
    </contour>
    <contour>
      <point x="510" y="256" type="line"/>
      <point x="384" y="256"/>
      <point x="322" y="272"/>
      <point x="322" y="420" type="curve"/>
      <point x="60" y="420" type="line"/>
      <point x="60" y="80"/>
      <point x="290" y="0"/>
      <point x="490" y="0" type="curve"/>
    </contour>
    <contour>
      <point x="510" y="256" type="curve"/>
      <point x="490" y="0" type="line"/>
      <point x="710" y="0"/>
      <point x="790" y="170"/>
      <point x="790" y="420" type="curve"/>
      <point x="640" y="420" type="line"/>
      <point x="640" y="314"/>
      <point x="606" y="256"/>
    </contour>
    <contour>
      <point x="322" y="580" type="line"/>
      <point x="60" y="580" type="line"/>
      <point x="60" y="508" type="line"/>
      <point x="322" y="508" type="line"/>
    </contour>
    <contour>
      <point x="510" y="744" type="curve"/>
      <point x="490" y="1000" type="line"/>
      <point x="290" y="1000"/>
      <point x="60" y="920"/>
      <point x="60" y="580" type="curve"/>
      <point x="322" y="580" type="line"/>
      <point x="322" y="728"/>
      <point x="384" y="744"/>
    </contour>
    <contour>
      <point x="510" y="744" type="line"/>
      <point x="606" y="744"/>
      <point x="640" y="686"/>
      <point x="640" y="580" type="curve"/>
      <point x="790" y="580" type="line"/>
      <point x="790" y="830"/>
      <point x="710" y="1000"/>
      <point x="490" y="1000" type="curve"/>
    </contour>
    <contour>
      <point x="322" y="580" type="line"/>
      <point x="60" y="580" type="line"/>
      <point x="60" y="508" type="line"/>
      <point x="322" y="508" type="line"/>
    </contour>
    <contour>
      <point x="510" y="744" type="curve"/>
      <point x="490" y="1000" type="line"/>
      <point x="290" y="1000"/>
      <point x="60" y="920"/>
      <point x="60" y="580" type="curve"/>
      <point x="322" y="580" type="line"/>
      <point x="322" y="728"/>
      <point x="384" y="744"/>
    </contour>
    <contour>
      <point x="510" y="744" type="line"/>
      <point x="606" y="744"/>
      <point x="640" y="686"/>
      <point x="640" y="580" type="curve"/>
      <point x="790" y="580" type="line"/>
      <point x="790" y="830"/>
      <point x="710" y="1000"/>
      <point x="490" y="1000" type="curve"/>
    </contour>
    <contour>
      <point x="322" y="580" type="line"/>
      <point x="60" y="580" type="line"/>
      <point x="60" y="508" type="line"/>
      <point x="322" y="508" type="line"/>
    </contour>
    <contour>
      <point x="510" y="744" type="curve"/>
      <point x="490" y="1000" type="line"/>
      <point x="290" y="1000"/>
      <point x="60" y="920"/>
      <point x="60" y="580" type="curve"/>
      <point x="322" y="580" type="line"/>
      <point x="322" y="728"/>
      <point x="384" y="744"/>
    </contour>
    <contour>
      <point x="510" y="744" type="line"/>
      <point x="606" y="744"/>
      <point x="640" y="686"/>
      <point x="640" y="580" type="curve"/>
      <point x="790" y="580" type="line"/>
      <point x="790" y="830"/>
      <point x="710" y="1000"/>
      <point x="490" y="1000" type="curve"/>
    </contour>
    <contour>
      <point x="322" y="580" type="line"/>
      <point x="60" y="580" type="line"/>
      <point x="60" y="508" type="line"/>
      <point x="322" y="508" type="line"/>
    </contour>
    <contour>
      <point x="510" y="744" type="curve"/>
      <point x="490" y="1000" type="line"/>
      <point x="290" y="1000"/>
      <point x="60" y="920"/>
      <point x="60" y="580" type="curve"/>
      <point x="322" y="580" type="line"/>
      <point x="322" y="728"/>
      <point x="384" y="744"/>
    </contour>
    <contour>
      <point x="510" y="744" type="line"/>
      <point x="606" y="744"/>
      <point x="640" y="686"/>
      <point x="640" y="580" type="curve"/>
      <point x="790" y="580" type="line"/>
      <point x="790" y="830"/>
      <point x="710" y="1000"/>
      <point x="490" y="1000" type="curve"/>
    </contour>
    <contour>
      <point x="230" y="1108" type="line"/>
      <point x="454" y="1036" type="line"/>
      <point x="816" y="1358" type="line"/>
      <point x="592" y="1432" type="line"/>
    </contour>
  </outline>
</glyph>
<glyph name="thorn" format="2">
  <advance width="1200"/>
  <unicode hex="00FE"/>
  <outline>
    <contour>
      <point x="123" y="1400" type="line"/>
      <point x="123" y="-400" type="line"/>
      <point x="383" y="-400" type="line"/>
      <point x="383" y="1400" type="line"/>
    </contour>
    <contour>
      <point x="701" y="580" type="line"/>
      <point x="963" y="580" type="line"/>
    </contour>
    <contour>
      <point x="513" y="744" type="line"/>
      <point x="639" y="744"/>
      <point x="701" y="728"/>
      <point x="701" y="580" type="curve"/>
      <point x="963" y="580" type="line"/>
      <point x="963" y="920"/>
      <point x="733" y="1000"/>
      <point x="533" y="1000" type="curve"/>
    </contour>
    <contour>
      <point x="513" y="744" type="curve"/>
      <point x="533" y="1000" type="line"/>
      <point x="313" y="1000"/>
      <point x="233" y="830"/>
      <point x="233" y="580" type="curve"/>
      <point x="383" y="580" type="line"/>
      <point x="383" y="686"/>
      <point x="417" y="744"/>
    </contour>
    <contour>
      <point x="513" y="256" type="line"/>
      <point x="417" y="256"/>
      <point x="383" y="314"/>
      <point x="383" y="420" type="curve"/>
      <point x="233" y="420" type="line"/>
      <point x="233" y="170"/>
      <point x="313" y="0"/>
      <point x="533" y="0" type="curve"/>
    </contour>
    <contour>
      <point x="701" y="420" type="line"/>
      <point x="963" y="420" type="line"/>
    </contour>
    <contour>
      <point x="513" y="256" type="curve"/>
      <point x="533" y="0" type="line"/>
      <point x="733" y="0"/>
      <point x="963" y="80"/>
      <point x="963" y="420" type="curve"/>
      <point x="701" y="420" type="line"/>
      <point x="701" y="272"/>
      <point x="639" y="256"/>
    </contour>
    <contour>
      <point x="513" y="256" type="line"/>
      <point x="417" y="256"/>
      <point x="383" y="314"/>
      <point x="383" y="420" type="curve"/>
      <point x="233" y="420" type="line"/>
      <point x="233" y="170"/>
      <point x="313" y="0"/>
      <point x="533" y="0" type="curve"/>
    </contour>
    <contour>
      <point x="701" y="580" type="line"/>
      <point x="701" y="420" type="line"/>
      <point x="963" y="420" type="line"/>
      <point x="963" y="580" type="line"/>
    </contour>
  </outline>
</glyph>
<glyph name="Hbar" format="2">
  <advance width="572"/>
  <unicode hex="0126"/>
  <outline>
    <contour>
      <point x="42" y="623" type="line"/>
      <point x="42" y="553" type="line"/>
      <point x="530" y="553" type="line"/>
      <point x="530" y="623" type="line"/>
    </contour>
    <component base="H" xOffset="28"/>
  </outline>
</glyph>
<glyph name="idotless" format="2">
  <advance width="299"/>
  <unicode hex="0131"/>
  <outline>
    <contour>
      <point x="42" y="485" type="line"/>
      <point x="42" y="215" type="line"/>
      <point x="172" y="24" type="line"/>
      <point x="172" y="500" type="line"/>
    </contour>
    <contour>
      <point x="257" y="0" type="move"/>
      <point x="257" y="131" type="line"/>
    </contour>
    <contour>
      <point x="172" y="225" type="curve"/>
      <point x="42" y="215" type="line"/>
      <point x="42" y="115"/>
      <point x="87" y="0"/>
      <point x="257" y="0" type="curve"/>
      <point x="257" y="131" type="line"/>
      <point x="183" y="131"/>
      <point x="172" y="162"/>
    </contour>
  </outline>
</glyph>
<glyph name="OE" format="2">
  <advance width="959"/>
  <unicode hex="0152"/>
  <outline>
    <contour>
      <point x="318" y="0" type="move"/>
    </contour>
    <contour>
      <point x="318" y="131" type="curve"/>
      <point x="318" y="0" type="line"/>
      <point x="687" y="0"/>
      <point x="686" y="700"/>
      <point x="318" y="700" type="curve"/>
      <point x="318" y="569" type="line"/>
      <point x="497" y="570"/>
      <point x="497" y="131"/>
    </contour>
    <contour>
      <point x="318" y="0" type="move"/>
    </contour>
    <contour>
      <point x="318" y="131" type="line"/>
      <point x="139" y="131"/>
      <point x="139" y="570"/>
      <point x="318" y="569" type="curve"/>
      <point x="318" y="700" type="line"/>
      <point x="-50" y="700"/>
      <point x="-51" y="0"/>
      <point x="318" y="0" type="curve"/>
    </contour>
    <contour>
      <point x="497" y="700" type="line"/>
      <point x="497" y="0" type="line"/>
      <point x="627" y="0" type="line"/>
      <point x="627" y="700" type="line"/>
    </contour>
    <contour>
      <point x="917" y="130" type="line"/>
      <point x="521" y="130" type="line"/>
      <point x="521" y="0" type="line"/>
      <point x="917" y="0" type="line"/>
    </contour>
    <contour>
      <point x="917" y="700" type="line"/>
      <point x="522" y="700" type="line"/>
      <point x="522" y="570" type="line"/>
      <point x="917" y="570" type="line"/>
    </contour>
    <contour>
      <point x="627" y="350" type="move"/>
    </contour>
    <contour>
      <point x="917" y="415" type="line"/>
      <point x="522" y="415" type="line"/>
      <point x="522" y="285" type="line"/>
      <point x="917" y="285" type="line"/>
    </contour>
  </outline>
</glyph>
<glyph name="oe" format="2">
  <advance width="803"/>
  <unicode hex="0153"/>
  <outline>
    <contour>
      <point x="341" y="210" type="line"/>
      <point x="472" y="210" type="line"/>
      <point x="472" y="254" type="line"/>
      <point x="341" y="254" type="line"/>
    </contour>
    <contour>
      <point x="247" y="128" type="curve"/>
      <point x="257" y="0" type="line"/>
      <point x="357" y="0"/>
      <point x="472" y="40"/>
      <point x="472" y="210" type="curve"/>
      <point x="341" y="210" type="line"/>
      <point x="341" y="136"/>
      <point x="310" y="128"/>
    </contour>
    <contour>
      <point x="247" y="128" type="line"/>
      <point x="257" y="0" type="line"/>
    </contour>
    <contour>
      <point x="472" y="254" type="line"/>
      <point x="341" y="254" type="line"/>
    </contour>
    <contour>
      <point x="341" y="290" type="line"/>
      <point x="341" y="254" type="line"/>
      <point x="472" y="254" type="line"/>
      <point x="472" y="290" type="line"/>
    </contour>
    <contour>
      <point x="247" y="372" type="line"/>
      <point x="310" y="372"/>
      <point x="341" y="364"/>
      <point x="341" y="290" type="curve"/>
      <point x="472" y="290" type="line"/>
      <point x="472" y="460"/>
      <point x="357" y="500"/>
      <point x="257" y="500" type="curve"/>
    </contour>
    <contour>
      <point x="247" y="372" type="line"/>
      <point x="257" y="500" type="line"/>
    </contour>
    <contour>
      <point x="173" y="210" type="line"/>
      <point x="173" y="254" type="line"/>
      <point x="42" y="254" type="line"/>
      <point x="42" y="210" type="line"/>
    </contour>
    <contour>
      <point x="267" y="128" type="line"/>
      <point x="204" y="128"/>
      <point x="173" y="136"/>
      <point x="173" y="210" type="curve"/>
      <point x="42" y="210" type="line"/>
      <point x="42" y="40"/>
      <point x="157" y="0"/>
      <point x="257" y="0" type="curve"/>
    </contour>
    <contour>
      <point x="267" y="128" type="line"/>
      <point x="257" y="0" type="line"/>
    </contour>
    <contour>
      <point x="173" y="254" type="line"/>
      <point x="42" y="254" type="line"/>
    </contour>
    <contour>
      <point x="173" y="254" type="line"/>
      <point x="42" y="254" type="line"/>
    </contour>
    <contour>
      <point x="173" y="254" type="line"/>
      <point x="42" y="254" type="line"/>
    </contour>
    <contour>
      <point x="267" y="372" type="line"/>
      <point x="257" y="500" type="line"/>
    </contour>
    <contour>
      <point x="173" y="290" type="line"/>
      <point x="42" y="290" type="line"/>
      <point x="42" y="254" type="line"/>
      <point x="173" y="254" type="line"/>
    </contour>
    <contour>
      <point x="267" y="372" type="curve"/>
      <point x="257" y="500" type="line"/>
      <point x="157" y="500"/>
      <point x="42" y="460"/>
      <point x="42" y="290" type="curve"/>
      <point x="173" y="290" type="line"/>
      <point x="173" y="364"/>
      <point x="204" y="372"/>
    </contour>
    <contour>
      <point x="342" y="210" type="line"/>
      <point x="471" y="210" type="line"/>
      <point x="471" y="290" type="line"/>
      <point x="342" y="290" type="line"/>
    </contour>
    <contour>
      <point x="471" y="28" type="move"/>
    </contour>
    <contour>
      <point x="471" y="28" type="move"/>
    </contour>
    <contour>
      <point x="471" y="28" type="move"/>
    </contour>
    <contour>
      <point x="536" y="128" type="curve"/>
      <point x="546" y="0" type="line"/>
      <point x="668" y="0"/>
      <point x="708" y="24"/>
      <point x="737" y="85" type="curve"/>
      <point x="654" y="157" type="line"/>
      <point x="628" y="119"/>
      <point x="569" y="128"/>
    </contour>
    <contour>
      <point x="536" y="128" type="line"/>
      <point x="488" y="128"/>
      <point x="471" y="157"/>
      <point x="471" y="210" type="curve"/>
      <point x="342" y="210" type="line"/>
      <point x="342" y="85"/>
      <point x="436" y="0"/>
      <point x="546" y="0" type="curve"/>
    </contour>
    <contour>
      <point x="536" y="372" type="line"/>
      <point x="599" y="372"/>
      <point x="630" y="354"/>
      <point x="630" y="300" type="curve"/>
      <point x="761" y="300" type="line"/>
      <point x="761" y="434"/>
      <point x="646" y="500"/>
      <point x="546" y="500" type="curve"/>
    </contour>
    <contour>
      <point x="536" y="372" type="curve"/>
      <point x="546" y="500" type="line"/>
      <point x="436" y="500"/>
      <point x="342" y="415"/>
      <point x="342" y="290" type="curve"/>
      <point x="471" y="290" type="line"/>
      <point x="471" y="343"/>
      <point x="488" y="372"/>
    </contour>
    <contour>
      <point x="457" y="300" type="line"/>
      <point x="457" y="219" type="line"/>
      <point x="761" y="220" type="line"/>
      <point x="761" y="300" type="line"/>
    </contour>
  </outline>
</glyph>
<glyph name="Scedilla" format="2">
  <advance width="536"/>
  <unicode hex="015E"/>
  <outline>
    <contour>
      <point x="268" y="412" type="curve"/>
      <point x="268" y="287" type="line"/>
      <point x="320" y="287"/>
      <point x="362" y="242"/>
      <point x="362" y="207" type="curve" smooth="yes"/>
      <point x="362" y="170"/>
      <point x="320" y="119"/>
      <point x="268" y="119" type="curve" smooth="yes"/>
      <point x="215" y="119"/>
      <point x="170" y="170"/>
      <point x="170" y="207" type="curve"/>
      <point x="42" y="207" type="line"/>
      <point x="42" y="91"/>
      <point x="143" y="0"/>
      <point x="268" y="0" type="curve" smooth="yes"/>
      <point x="390" y="0"/>
      <point x="491" y="91"/>
      <point x="491" y="207" type="curve" smooth="yes"/>
      <point x="491" y="322"/>
      <point x="390" y="412"/>
    </contour>
    <contour>
      <point x="268" y="287" type="line"/>
      <point x="146" y="287"/>
      <point x="45" y="378"/>
      <point x="45" y="493" type="curve" smooth="yes"/>
      <point x="45" y="610"/>
      <point x="146" y="700"/>
      <point x="268" y="700" type="curve" smooth="yes"/>
      <point x="393" y="700"/>
      <point x="494" y="610"/>
      <point x="494" y="493" type="curve"/>
      <point x="366" y="493" type="line"/>
      <point x="366" y="528"/>
      <point x="321" y="580"/>
      <point x="268" y="580" type="curve" smooth="yes"/>
      <point x="216" y="580"/>
      <point x="174" y="528"/>
      <point x="174" y="493" type="curve" smooth="yes"/>
      <point x="174" y="455"/>
      <point x="216" y="412"/>
      <point x="268" y="412" type="curve"/>
    </contour>
    <component base="cedillacomb" xOffset="-22"/>
  </outline>
</glyph>
<glyph name="scedilla" format="2">
  <advance width="916"/>
  <unicode hex="015F"/>
  <outline>
    <contour>
      <point x="367" y="25" type="curve"/>
      <point x="627" y="25" type="line"/>
      <point x="627" y="-138"/>
      <point x="513" y="-274"/>
      <point x="377" y="-273" type="curve"/>
      <point x="214" y="-138" type="line"/>
      <point x="320" y="-138"/>
      <point x="367" y="-61"/>
    </contour>
    <component base="s"/>
  </outline>
</glyph>
<glyph name="Tcedilla" format="2">
  <advance width="504"/>
  <unicode hex="0162"/>
  <outline>
    <contour>
      <point x="187" y="0" type="line"/>
      <point x="187" y="-43"/>
      <point x="153" y="-101"/>
      <point x="80" y="-101" type="curve"/>
      <point x="172" y="-169" type="line"/>
      <point x="277" y="-170"/>
      <point x="317" y="-44"/>
      <point x="317" y="0" type="curve"/>
    </contour>
    <component base="T"/>
  </outline>
</glyph>
<glyph name="zcaron" format="2">
  <advance width="975"/>
  <unicode hex="017E"/>
  <outline>
    <contour>
      <point x="553" y="771" type="line"/>
      <point x="60" y="240" type="line"/>
      <point x="413" y="240" type="line"/>
      <point x="915" y="771" type="line"/>
    </contour>
    <contour>
      <point x="62" y="1001" type="line"/>
      <point x="62" y="771" type="line"/>
      <point x="915" y="771" type="line"/>
      <point x="915" y="1001" type="line"/>
    </contour>
    <contour>
      <point x="915" y="0" type="move"/>
    </contour>
    <contour>
      <point x="62" y="240" type="line"/>
      <point x="62" y="0" type="line"/>
      <point x="915" y="0" type="line"/>
      <point x="915" y="240" type="line"/>
    </contour>
    <component base="caroncomb" xOffset="-37"/>
  </outline>
</glyph>
<glyph name="scommaaccent" format="2">
  <advance width="482"/>
  <unicode hex="0219"/>
  <outline>
    <contour>
      <point x="241" y="294" type="line"/>
      <point x="348" y="294"/>
      <point x="437" y="230"/>
      <point x="437" y="148" type="curve" smooth="yes"/>
      <point x="437" y="65"/>
      <point x="348" y="0"/>
      <point x="241" y="0" type="curve" smooth="yes"/>
      <point x="131" y="0"/>
      <point x="42" y="65"/>
      <point x="42" y="148" type="curve"/>
      <point x="155" y="161" type="line"/>
      <point x="155" y="134"/>
      <point x="194" y="114"/>
      <point x="241" y="114" type="curve" smooth="yes"/>
      <point x="287" y="114"/>
      <point x="324" y="134"/>
      <point x="324" y="161" type="curve" smooth="yes"/>
      <point x="324" y="186"/>
      <point x="287" y="205"/>
      <point x="241" y="205" type="curve"/>
    </contour>
    <contour>
      <point x="241" y="205" type="line"/>
      <point x="134" y="205"/>
      <point x="45" y="270"/>
      <point x="45" y="352" type="curve" smooth="yes"/>
      <point x="45" y="436"/>
      <point x="134" y="500"/>
      <point x="241" y="500" type="curve" smooth="yes"/>
      <point x="351" y="500"/>
      <point x="440" y="436"/>
      <point x="440" y="352" type="curve"/>
      <point x="327" y="340" type="line"/>
      <point x="327" y="365"/>
      <point x="288" y="385"/>
      <point x="241" y="385" type="curve" smooth="yes"/>
      <point x="195" y="385"/>
      <point x="158" y="365"/>
      <point x="158" y="340" type="curve" smooth="yes"/>
      <point x="158" y="313"/>
      <point x="195" y="294"/>
      <point x="241" y="294" type="curve"/>
    </contour>
    <contour>
      <point x="241" y="294" type="line"/>
      <point x="348" y="294"/>
      <point x="437" y="230"/>
      <point x="437" y="148" type="curve" smooth="yes"/>
      <point x="437" y="65"/>
      <point x="348" y="0"/>
      <point x="241" y="0" type="curve" smooth="yes"/>
      <point x="131" y="0"/>
      <point x="42" y="65"/>
      <point x="42" y="148" type="curve"/>
      <point x="155" y="161" type="line"/>
      <point x="155" y="134"/>
      <point x="194" y="114"/>
      <point x="241" y="114" type="curve" smooth="yes"/>
      <point x="287" y="114"/>
      <point x="324" y="134"/>
      <point x="324" y="161" type="curve" smooth="yes"/>
      <point x="324" y="186"/>
      <point x="287" y="205"/>
      <point x="241" y="205" type="curve"/>
    </contour>
    <contour>
      <point x="241" y="205" type="line"/>
      <point x="134" y="205"/>
      <point x="45" y="270"/>
      <point x="45" y="352" type="curve" smooth="yes"/>
      <point x="45" y="436"/>
      <point x="134" y="500"/>
      <point x="241" y="500" type="curve" smooth="yes"/>
      <point x="351" y="500"/>
      <point x="440" y="436"/>
      <point x="440" y="352" type="curve"/>
      <point x="327" y="340" type="line"/>
      <point x="327" y="365"/>
      <point x="288" y="385"/>
      <point x="241" y="385" type="curve" smooth="yes"/>
      <point x="195" y="385"/>
      <point x="158" y="365"/>
      <point x="158" y="340" type="curve" smooth="yes"/>
      <point x="158" y="313"/>
      <point x="195" y="294"/>
      <point x="241" y="294" type="curve"/>
    </contour>
    <contour>
      <point x="173" y="11" type="line"/>
      <point x="173" y="-32"/>
      <point x="137" y="-90"/>
      <point x="59" y="-90" type="curve"/>
      <point x="157" y="-158" type="line"/>
      <point x="269" y="-159"/>
      <point x="311" y="-33"/>
      <point x="311" y="11" type="curve"/>
    </contour>
  </outline>
</glyph>
<glyph name="gravecomb" format="2">
  <unicode hex="0300"/>
  <outline>
    <contour>
      <point x="384" y="1101" type="line"/>
      <point x="694" y="1101" type="line"/>
      <point x="458" y="1299" type="line"/>
      <point x="250" y="1299" type="line"/>
    </contour>
  </outline>
</glyph>
<glyph name="acutecomb" format="2">
  <unicode hex="0301"/>
  <outline>
    <contour>
      <point x="230" y="534" type="line"/>
      <point x="340" y="534" type="line"/>
      <point x="438" y="635" type="line"/>
      <point x="308" y="635" type="line"/>
    </contour>
  </outline>
</glyph>
<glyph name="circumflexcomb" format="2">
  <unicode hex="0302"/>
  <outline>
    <contour>
      <point x="210" y="635" type="line"/>
      <point x="287" y="534" type="line"/>
      <point x="410" y="534" type="line"/>
      <point x="312" y="635" type="line"/>
    </contour>
    <contour>
      <point x="157" y="635" type="line"/>
      <point x="90" y="536" type="line"/>
      <point x="194" y="536" type="line"/>
      <point x="312" y="635" type="line"/>
    </contour>
  </outline>
</glyph>
<glyph name="tildecomb" format="2">
  <unicode hex="0303"/>
  <outline>
    <contour>
      <point x="220" y="611" type="curve"/>
      <point x="330" y="611" type="line"/>
      <point x="330" y="700"/>
      <point x="509" y="500"/>
      <point x="509" y="700" type="curve"/>
      <point x="399" y="700" type="line"/>
      <point x="399" y="617"/>
      <point x="220" y="800"/>
    </contour>
  </outline>
</glyph>
<glyph name="macroncomb" format="2">
  <unicode hex="0304"/>
  <outline>
    <contour>
      <point x="200" y="1278" type="line"/>
      <point x="200" y="1122" type="line"/>
      <point x="764" y="1122" type="line"/>
      <point x="764" y="1278" type="line"/>
    </contour>
  </outline>
</glyph>
<glyph name="brevecomb" format="2">
  <unicode hex="0306"/>
  <outline>
    <contour>
      <point x="800" y="1104" type="line"/>
      <point x="800" y="1296" type="line"/>
      <point x="200" y="1296" type="line"/>
      <point x="200" y="1104" type="line"/>
    </contour>
  </outline>
</glyph>
<glyph name="dotaccentcomb" format="2">
  <unicode hex="0307"/>
  <outline>
    <contour>
      <point x="380" y="1070" type="curve" smooth="yes"/>
      <point x="450" y="1070"/>
      <point x="510" y="1128"/>
      <point x="510" y="1202" type="curve" smooth="yes"/>
      <point x="510" y="1274"/>
      <point x="450" y="1330"/>
      <point x="380" y="1330" type="curve" smooth="yes"/>
      <point x="308" y="1330"/>
      <point x="250" y="1274"/>
      <point x="250" y="1202" type="curve" smooth="yes"/>
      <point x="250" y="1128"/>
      <point x="308" y="1070"/>
    </contour>
  </outline>
</glyph>
<glyph name="dieresiscomb" format="2">
  <unicode hex="0308"/>
  <outline>
    <contour>
      <point x="107" y="535" type="curve" smooth="yes"/>
      <point x="142" y="535"/>
      <point x="172" y="564"/>
      <point x="172" y="601" type="curve" smooth="yes"/>
      <point x="172" y="637"/>
      <point x="142" y="665"/>
      <point x="107" y="665" type="curve" smooth="yes"/>
      <point x="71" y="665"/>
      <point x="42" y="637"/>
      <point x="42" y="601" type="curve" smooth="yes"/>
      <point x="42" y="564"/>
      <point x="71" y="535"/>
    </contour>
    <contour>
      <point x="397" y="535" type="curve" smooth="yes"/>
      <point x="432" y="535"/>
      <point x="462" y="564"/>
      <point x="462" y="601" type="curve" smooth="yes"/>
      <point x="462" y="637"/>
      <point x="432" y="665"/>
      <point x="397" y="665" type="curve" smooth="yes"/>
      <point x="361" y="665"/>
      <point x="332" y="637"/>
      <point x="332" y="601" type="curve" smooth="yes"/>
      <point x="332" y="564"/>
      <point x="361" y="535"/>
    </contour>
  </outline>
</glyph>
<glyph name="ringcomb" format="2">
  <unicode hex="030A"/>
  <outline>
    <contour>
      <point x="346" y="602" type="curve" smooth="yes"/>
      <point x="346" y="555"/>
      <point x="370" y="516"/>
      <point x="420" y="516" type="curve" smooth="yes"/>
      <point x="468" y="516"/>
      <point x="510" y="553"/>
      <point x="510" y="600" type="curve" smooth="yes"/>
      <point x="510" y="646"/>
      <point x="468" y="682"/>
      <point x="420" y="682" type="curve" smooth="yes"/>
      <point x="370" y="682"/>
      <point x="346" y="648"/>
    </contour>
    <contour>
      <point x="384" y="601" type="curve" smooth="yes"/>
      <point x="384" y="627"/>
      <point x="403" y="648"/>
      <point x="425" y="648" type="curve" smooth="yes"/>
      <point x="448" y="648"/>
      <point x="466" y="627"/>
      <point x="466" y="601" type="curve" smooth="yes"/>
      <point x="466" y="576"/>
      <point x="448" y="555"/>
      <point x="425" y="555" type="curve" smooth="yes"/>
      <point x="403" y="555"/>
      <point x="384" y="576"/>
    </contour>
  </outline>
</glyph>
<glyph name="hungarumlautcomb" format="2">
  <unicode hex="030B"/>
  <outline>
    <contour>
      <point x="239" y="516" type="line"/>
      <point x="282" y="643" type="line"/>
      <point x="198" y="643" type="line"/>
      <point x="155" y="516" type="line"/>
    </contour>
    <contour>
      <point x="362" y="516" type="line"/>
      <point x="405" y="643" type="line"/>
      <point x="320" y="643" type="line"/>
      <point x="277" y="516" type="line"/>
    </contour>
  </outline>
</glyph>
<glyph name="caroncomb" format="2">
  <unicode hex="030C"/>
  <outline>
    <contour>
      <point x="278" y="534" type="line"/>
      <point x="380" y="534" type="line"/>
      <point x="478" y="635" type="line"/>
      <point x="355" y="635" type="line"/>
    </contour>
    <contour>
      <point x="225" y="534" type="line"/>
      <point x="380" y="534" type="line"/>
      <point x="262" y="633" type="line"/>
      <point x="158" y="633" type="line"/>
    </contour>
  </outline>
</glyph>
<glyph name="commaturnedabovecomb" format="2">
  <unicode hex="0312"/>
  <outline>
    <contour>
      <point x="135" y="695" type="line"/>
      <point x="135" y="459" type="line"/>
      <point x="369" y="459" type="line"/>
      <point x="369" y="695" type="line"/>
    </contour>
    <contour>
      <point x="295" y="941" type="line"/>
      <point x="179" y="941"/>
      <point x="137" y="839"/>
      <point x="135" y="695" type="curve"/>
      <point x="243" y="695" type="line"/>
      <point x="243" y="839"/>
      <point x="265" y="877"/>
      <point x="295" y="877" type="curve"/>
    </contour>
  </outline>
</glyph>
<glyph name="commaaccentcomb" format="2">
  <unicode hex="0326"/>
  <outline>
    <contour>
      <point x="271" y="-39" type="line"/>
      <point x="191" y="-200" type="line"/>
      <point x="321" y="-200" type="line"/>
      <point x="401" y="-39" type="line"/>
    </contour>
  </outline>
</glyph>
<glyph name="cedillacomb" format="2">
  <unicode hex="0327"/>
  <outline>
    <contour>
      <point x="218" y="11" type="line"/>
      <point x="218" y="-32"/>
      <point x="182" y="-90"/>
      <point x="104" y="-90" type="curve"/>
      <point x="202" y="-158" type="line"/>
      <point x="314" y="-159"/>
      <point x="356" y="-33"/>
      <point x="356" y="11" type="curve"/>
    </contour>
  </outline>
</glyph>
<glyph name="ogonekcomb" format="2">
  <unicode hex="0328"/>
  <outline>
    <contour>
      <point x="338" y="0" type="curve"/>
      <point x="295" y="0"/>
      <point x="251" y="0"/>
      <point x="208" y="0" type="curve"/>
      <point x="260" y="-160"/>
      <point x="294" y="-173"/>
      <point x="411" y="-211" type="curve"/>
      <point x="438" y="-98" type="line"/>
      <point x="359" y="-98"/>
      <point x="333" y="-18"/>
    </contour>
  </outline>
</glyph>
<glyph name="strokeshortcomb" format="2">
  <unicode hex="0335"/>
  <outline>
    <contour>
      <point x="82" y="295" type="line"/>
      <point x="82" y="219" type="line"/>
      <point x="401" y="219" type="line"/>
      <point x="401" y="295" type="line"/>
    </contour>
  </outline>
</glyph>
<glyph name="strokelongcomb" format="2">
  <unicode hex="0336"/>
  <outline>
    <contour>
      <point x="74" y="294" type="line"/>
      <point x="74" y="215" type="line"/>
      <point x="449" y="215" type="line"/>
      <point x="449" y="294" type="line"/>
    </contour>
  </outline>
</glyph>
<glyph name="slashshortcomb" format="2">
  <unicode hex="0337"/>
  <outline>
    <contour>
      <point x="338" y="466" type="line"/>
      <point x="42" y="246" type="line"/>
      <point x="172" y="246" type="line"/>
      <point x="469" y="466" type="line"/>
    </contour>
    <contour>
      <point x="338" y="516" type="line"/>
      <point x="338" y="466" type="line"/>
      <point x="469" y="466" type="line"/>
      <point x="469" y="516" type="line"/>
    </contour>
  </outline>
</glyph>
<glyph name="slashlongcomb" format="2">
  <unicode hex="0338"/>
  <outline>
    <contour>
      <point x="634" y="1332" type="line"/>
      <point x="42" y="0" type="line"/>
      <point x="302" y="0" type="line"/>
      <point x="896" y="1332" type="line"/>
    </contour>
    <contour>
      <point x="634" y="1432" type="line"/>
      <point x="634" y="1332" type="line"/>
      <point x="896" y="1332" type="line"/>
      <point x="896" y="1432" type="line"/>
    </contour>
  </outline>
</glyph>
<glyph name="emdash" format="2">
  <advance width="1352"/>
  <unicode hex="2014"/>
  <outline>
    <contour>
      <point x="1292" y="580" type="line"/>
      <point x="60" y="580" type="line"/>
      <point x="60" y="320" type="line"/>
      <point x="1292" y="320" type="line"/>
    </contour>
  </outline>
</glyph>
<glyph name="quoteleft" format="2">
  <advance width="500"/>
  <unicode hex="2018"/>
  <outline>
    <contour>
      <point x="42" y="1084" type="line"/>
      <point x="102" y="516" type="line"/>
      <point x="322" y="516" type="line"/>
      <point x="262" y="1084" type="line"/>
    </contour>
  </outline>
</glyph>
<glyph name="quotedblright" format="2">
  <advance width="720"/>
  <unicode hex="201D"/>
  <outline>
    <contour>
      <point x="120" y="1400" type="line"/>
      <point x="60" y="832" type="line"/>
      <point x="280" y="832" type="line"/>
      <point x="340" y="1400" type="line"/>
    </contour>
    <contour>
      <point x="440" y="1400" type="line"/>
      <point x="380" y="832" type="line"/>
      <point x="600" y="832" type="line"/>
      <point x="660" y="1400" type="line"/>
    </contour>
  </outline>
</glyph>
<glyph name="bullet" format="2">
  <advance width="1000"/>
  <unicode hex="2022"/>
  <outline>
    <contour>
      <point x="384" y="150" type="curve" smooth="yes"/>
      <point x="546" y="150"/>
      <point x="684" y="284"/>
      <point x="684" y="450" type="curve" smooth="yes"/>
      <point x="684" y="616"/>
      <point x="546" y="750"/>
      <point x="384" y="750" type="curve" smooth="yes"/>
      <point x="218" y="750"/>
      <point x="84" y="616"/>
      <point x="84" y="450" type="curve" smooth="yes"/>
      <point x="84" y="284"/>
      <point x="218" y="150"/>
    </contour>
  </outline>
</glyph>
<glyph name="fraction" format="2">
  <advance width="951"/>
  <unicode hex="2044"/>
  <outline>
    <contour>
      <point x="631" y="1527" type="line"/>
      <point x="60" y="-155" type="line"/>
      <point x="320" y="-155" type="line"/>
      <point x="891" y="1527" type="line"/>
    </contour>
  </outline>
</glyph>
<glyph name="liraTurkish" format="2">
  <advance width="1200"/>
  <unicode hex="20BA"/>
  <outline>
    <contour>
      <point x="308" y="0" type="line"/>
      <point x="562" y="0" type="line" smooth="yes"/>
      <point x="893" y="0"/>
      <point x="1046" y="122"/>
      <point x="1115" y="366" type="curve"/>
      <point x="1000" y="557" type="line"/>
      <point x="903" y="323"/>
      <point x="776" y="260"/>
      <point x="563" y="260" type="curve" smooth="yes"/>
      <point x="538" y="260" type="line"/>
      <point x="536" y="1374" type="line"/>
      <point x="308" y="1374" type="line"/>
    </contour>
    <contour>
      <point x="186" y="264" type="line"/>
      <point x="824" y="559" type="line"/>
      <point x="781" y="776" type="line"/>
      <point x="145" y="478" type="line"/>
    </contour>
    <contour>
      <point x="191" y="566" type="line"/>
      <point x="827" y="864" type="line"/>
      <point x="783" y="1081" type="line"/>
      <point x="145" y="786" type="line"/>
    </contour>
  </outline>
</glyph>
<glyph name="upArrow" format="2">
  <advance width="1387"/>
  <unicode hex="2191"/>
  <outline>
    <contour>
      <point x="563" y="1270" type="line"/>
      <point x="563" y="0" type="line"/>
      <point x="824" y="0" type="line"/>
      <point x="824" y="1270" type="line"/>
    </contour>
    <contour>
      <point x="100" y="806" type="line"/>
      <point x="283" y="623" type="line"/>
      <point x="877" y="1217" type="line"/>
      <point x="694" y="1400" type="line"/>
    </contour>
    <contour>
      <point x="694" y="1400" type="line"/>
      <point x="510" y="1217" type="line"/>
      <point x="1104" y="623" type="line"/>
      <point x="1287" y="806" type="line"/>
    </contour>
  </outline>
</glyph>
<glyph name="rightArrow" format="2">
  <advance width="1600"/>
  <unicode hex="2192"/>
  <outline>
    <contour>
      <point x="1370" y="784" type="line"/>
      <point x="100" y="784" type="line"/>
      <point x="100" y="523" type="line"/>
      <point x="1370" y="524" type="line"/>
    </contour>
    <contour>
      <point x="906" y="1247" type="line"/>
      <point x="723" y="1065" type="line"/>
      <point x="1317" y="471" type="line"/>
      <point x="1500" y="653" type="line"/>
    </contour>
    <contour>
      <point x="1500" y="653" type="line"/>
      <point x="1317" y="838" type="line"/>
      <point x="723" y="244" type="line"/>
      <point x="906" y="61" type="line"/>
    </contour>
  </outline>
</glyph>
<glyph name="downArrow" format="2">
  <advance width="1388"/>
  <unicode hex="2193"/>
  <outline>
    <contour>
      <point x="824" y="66" type="line"/>
      <point x="824" y="1335" type="line"/>
      <point x="564" y="1335" type="line"/>
      <point x="564" y="65" type="line"/>
    </contour>
    <contour>
      <point x="1288" y="529" type="line"/>
      <point x="1104" y="712" type="line"/>
      <point x="511" y="118" type="line"/>
      <point x="694" y="-65" type="line"/>
    </contour>
    <contour>
      <point x="694" y="-65" type="line"/>
      <point x="877" y="119" type="line"/>
      <point x="284" y="713" type="line"/>
      <point x="100" y="529" type="line"/>
    </contour>
  </outline>
</glyph>
<glyph name="leftRightArrow" format="2">
  <advance width="2106"/>
  <unicode hex="2194"/>
  <outline>
    <contour>
      <point x="231" y="543" type="line"/>
      <point x="1771" y="543" type="line"/>
      <point x="1770" y="804" type="line"/>
      <point x="230" y="804" type="line"/>
    </contour>
    <contour>
      <point x="694" y="80" type="line"/>
      <point x="877" y="263" type="line"/>
      <point x="283" y="857" type="line"/>
      <point x="100" y="674" type="line"/>
    </contour>
    <contour>
      <point x="100" y="674" type="line"/>
      <point x="284" y="490" type="line"/>
      <point x="878" y="1084" type="line"/>
      <point x="695" y="1267" type="line"/>
    </contour>
    <contour>
      <point x="1412" y="80" type="line"/>
      <point x="2006" y="674" type="line"/>
      <point x="1823" y="857" type="line"/>
      <point x="1229" y="263" type="line"/>
    </contour>
    <contour>
      <point x="2006" y="674" type="line"/>
      <point x="1411" y="1267" type="line"/>
      <point x="1228" y="1084" type="line"/>
      <point x="1822" y="490" type="line"/>
    </contour>
  </outline>
</glyph>
<glyph name="northEastArrow" format="2">
  <advance width="1283"/>
  <unicode hex="2197"/>
  <outline>
    <contour>
      <point x="998" y="1195" type="line"/>
      <point x="100" y="297" type="line"/>
      <point x="285" y="113" type="line"/>
      <point x="1183" y="1011" type="line"/>
    </contour>
    <contour>
      <point x="343" y="1195" type="line"/>
      <point x="343" y="936" type="line"/>
      <point x="1183" y="936" type="line"/>
      <point x="1183" y="1195" type="line"/>
    </contour>
    <contour>
      <point x="1183" y="1195" type="line"/>
      <point x="923" y="1195" type="line"/>
      <point x="923" y="355" type="line"/>
      <point x="1182" y="355" type="line"/>
    </contour>
  </outline>
</glyph>
<glyph name="partialdiff" format="2">
  <advance width="1308"/>
  <unicode hex="2202"/>
  <outline>
    <contour>
      <point x="563" y="1400" type="line"/>
      <point x="1084" y="1400"/>
      <point x="1128" y="109"/>
      <point x="563" y="105" type="curve"/>
      <point x="563" y="-155" type="line"/>
      <point x="1437" y="-155"/>
      <point x="1408" y="1659"/>
      <point x="563" y="1659" type="curve"/>
    </contour>
    <contour>
      <point x="961" y="414" type="curve"/>
      <point x="995" y="653" type="line"/>
      <point x="37" y="1202"/>
      <point x="-223" y="-155"/>
      <point x="563" y="-155" type="curve"/>
      <point x="563" y="105" type="line"/>
      <point x="83" y="104"/>
      <point x="385" y="900"/>
    </contour>
  </outline>
</glyph>
<glyph name="radical" format="2">
  <advance width="1608"/>
  <unicode hex="221A"/>
  <outline>
    <contour>
      <point x="100" y="544" type="line"/>
      <point x="486" y="-155" type="line"/>
      <point x="746" y="-155" type="line"/>
      <point x="1063" y="1401" type="line"/>
      <point x="1508" y="1399" type="line"/>
      <point x="1508" y="1659" type="line"/>
      <point x="858" y="1659" type="line"/>
      <point x="556" y="188" type="line"/>
      <point x="360" y="544" type="line"/>
    </contour>
  </outline>
</glyph>
<glyph name="infinity" format="2">
  <advance width="2023"/>
  <unicode hex="221E"/>
  <outline>
    <contour>
      <point x="1474" y="1000" type="curve" smooth="yes"/>
      <point x="1239" y="1000"/>
      <point x="1112" y="838"/>
      <point x="1004" y="641" type="curve"/>
      <point x="882" y="881"/>
      <point x="751" y="1000"/>
      <point x="531" y="1000" type="curve" smooth="yes"/>
      <point x="227" y="1000"/>
      <point x="150" y="788"/>
      <point x="150" y="500" type="curve" smooth="yes"/>
      <point x="150" y="218"/>
      <point x="223" y="0"/>
      <point x="549" y="0" type="curve" smooth="yes"/>
      <point x="784" y="0"/>
      <point x="916" y="160"/>
      <point x="1020" y="361" type="curve"/>
      <point x="1133" y="119"/>
      <point x="1272" y="0"/>
      <point x="1490" y="0" type="curve" smooth="yes"/>
      <point x="1796" y="0"/>
      <point x="1873" y="212"/>
      <point x="1873" y="498" type="curve" smooth="yes"/>
      <point x="1873" y="782"/>
      <point x="1799" y="1000"/>
    </contour>
    <contour>
      <point x="556" y="770" type="curve" smooth="yes"/>
      <point x="717" y="770"/>
      <point x="786" y="613"/>
      <point x="841" y="517" type="curve"/>
      <point x="772" y="379"/>
      <point x="701" y="232"/>
      <point x="558" y="232" type="curve" smooth="yes"/>
      <point x="439" y="232"/>
      <point x="382" y="317"/>
      <point x="382" y="501" type="curve" smooth="yes"/>
      <point x="382" y="686"/>
      <point x="442" y="770"/>
    </contour>
    <contour>
      <point x="1465" y="766" type="curve" smooth="yes"/>
      <point x="1584" y="766"/>
      <point x="1640" y="682"/>
      <point x="1640" y="497" type="curve" smooth="yes"/>
      <point x="1640" y="313"/>
      <point x="1582" y="228"/>
      <point x="1467" y="228" type="curve" smooth="yes"/>
      <point x="1305" y="228"/>
      <point x="1237" y="388"/>
      <point x="1182" y="483" type="curve"/>
      <point x="1250" y="622"/>
      <point x="1321" y="766"/>
    </contour>
  </outline>
</glyph>
<glyph name="approxequal" format="2">
  <advance width="1174"/>
  <unicode hex="2248"/>
  <outline>
    <contour>
      <point x="100" y="825" type="curve"/>
      <point x="100" y="565" type="line"/>
      <point x="425" y="715"/>
      <point x="749" y="415"/>
      <point x="1074" y="565" type="curve"/>
      <point x="1074" y="825" type="line"/>
      <point x="749" y="675"/>
      <point x="425" y="975"/>
    </contour>
    <contour>
      <point x="100" y="405" type="curve"/>
      <point x="100" y="145" type="line"/>
      <point x="425" y="295"/>
      <point x="749" y="-5"/>
      <point x="1074" y="145" type="curve"/>
      <point x="1074" y="405" type="line"/>
      <point x="749" y="255"/>
      <point x="425" y="555"/>
    </contour>
  </outline>
</glyph>
<glyph name="greaterequal" format="2">
  <advance width="1200"/>
  <unicode hex="2265"/>
  <outline>
    <contour>
      <point x="100" y="0" type="line"/>
      <point x="1100" y="0" type="line"/>
      <point x="1100" y="200" type="line"/>
      <point x="100" y="200" type="line"/>
    </contour>
    <contour>
      <point x="1095" y="546" type="line"/>
      <point x="1095" y="736" type="line"/>
      <point x="100" y="1000" type="line"/>
      <point x="100" y="811" type="line"/>
      <point x="746" y="639" type="line"/>
      <point x="100" y="460" type="line"/>
      <point x="100" y="271" type="line"/>
    </contour>
  </outline>
</glyph>
<glyph name="lozenge" format="2">
  <advance width="1387"/>
  <unicode hex="25CA"/>
  <outline>
    <contour>
      <point x="100" y="857" type="line"/>
      <point x="283" y="674" type="line"/>
      <point x="877" y="1268" type="line"/>
      <point x="694" y="1451" type="line"/>
    </contour>
    <contour>
      <point x="694" y="1451" type="line"/>
      <point x="510" y="1267" type="line"/>
      <point x="1104" y="673" type="line"/>
      <point x="1287" y="856" type="line"/>
    </contour>
    <contour>
      <point x="100" y="491" type="line"/>
      <point x="694" y="-103" type="line"/>
      <point x="877" y="80" type="line"/>
      <point x="283" y="674" type="line"/>
    </contour>
    <contour>
      <point x="694" y="-103" type="line"/>
      <point x="1287" y="492" type="line"/>
      <point x="1104" y="675" type="line"/>
      <point x="510" y="81" type="line"/>
    </contour>
  </outline>
</glyph>
<glyph name="acute.case" format="2">
  <advance width="960"/>
  <outline>
    <contour>
      <point x="358" y="1426" type="line"/>
      <point x="578" y="1426" type="line"/>
      <point x="774" y="1626" type="line"/>
      <point x="514" y="1626" type="line"/>
    </contour>
  </outline>
</glyph>
<glyph name="caroncomb.case" format="2">
  <outline>
    <contour>
      <point x="414" y="1436" type="line"/>
      <point x="618" y="1436" type="line"/>
      <point x="814" y="1636" type="line"/>
      <point x="568" y="1636" type="line"/>
    </contour>
    <contour>
      <point x="308" y="1436" type="line"/>
      <point x="618" y="1436" type="line"/>
      <point x="382" y="1636" type="line"/>
      <point x="174" y="1636" type="line"/>
    </contour>
  </outline>
</glyph>
<glyph name="dotaccentcomb.case" format="2">
  <outline>
    <contour>
      <point x="380" y="1470" type="curve" smooth="yes"/>
      <point x="450" y="1470"/>
      <point x="510" y="1528"/>
      <point x="510" y="1602" type="curve" smooth="yes"/>
      <point x="510" y="1674"/>
      <point x="450" y="1730"/>
      <point x="380" y="1730" type="curve" smooth="yes"/>
      <point x="308" y="1730"/>
      <point x="250" y="1674"/>
      <point x="250" y="1602" type="curve" smooth="yes"/>
      <point x="250" y="1528"/>
      <point x="308" y="1470"/>
    </contour>
  </outline>
</glyph>
<glyph name="macroncomb.case" format="2">
  <outline>
    <contour>
      <point x="200" y="1600" type="line"/>
      <point x="200" y="1444" type="line"/>
      <point x="764" y="1444" type="line"/>
      <point x="764" y="1600" type="line"/>
    </contour>
  </outline>
</glyph>
<glyph name="tildecomb.case" format="2">
  <outline>
    <contour>
      <point x="200" y="1522" type="curve"/>
      <point x="420" y="1522" type="line"/>
      <point x="420" y="1700"/>
      <point x="778" y="1300"/>
      <point x="778" y="1700" type="curve"/>
      <point x="558" y="1700" type="line"/>
      <point x="558" y="1534"/>
      <point x="200" y="1900"/>
    </contour>
  </outline>
</glyph>
